<svg xmlns="http://www.w3.org/2000/svg" width="240" height="48" viewBox="0 0 240 48">
  <g id="_2stars" data-name="2stars" transform="translate(-157 -158)">
    <g id="Group_112" data-name="Group 112" transform="translate(71 -582)">
      <g id="Layer_2" data-name="Layer 2" transform="translate(188.84 746.84)">
        <g id="invisible_box" data-name="invisible box">
          <rect id="Rectangle_32" data-name="Rectangle 32" width="34" height="34" transform="translate(0.16 0.16)" fill="none"/>
        </g>
        <g id="icons_Q2" data-name="icons Q2" transform="translate(1.448 2.145)">
          <path id="Path_247" data-name="Path 247" d="M17.737,3a1.5,1.5,0,0,0-1.287.786L12.374,12.08,3.223,13.367a1.5,1.5,0,0,0-.786,2.5l6.578,6.363-1.5,9.152a1.43,1.43,0,0,0,1.358,1.644l.715-.143,8.151-4.29,8.151,4.29.715.143a1.43,1.43,0,0,0,1.358-1.644l-1.5-9.152,6.578-6.363a1.5,1.5,0,0,0-.786-2.5L23.1,12.08,19.024,3.786A1.5,1.5,0,0,0,17.737,3Z" transform="translate(-2.025 -3)" fill="#fff"/>
        </g>
      </g>
      <g id="Layer_2-2" data-name="Layer 2" transform="translate(205 716)">
        <g id="invisible_box-2" data-name="invisible box" transform="translate(-23 24)">
          <rect id="Rectangle_31" data-name="Rectangle 31" width="48" height="48" fill="none"/>
        </g>
        <g id="icons_Q2-2" data-name="icons Q2" transform="translate(-23 24)">
          <path id="Path_246" data-name="Path 246" d="M24,9.5l3.9,8,1,1.8,2,.3,8.8,1.3-6.3,6.2-1.5,1.4.3,2.1,1.5,8.7-7.8-4.1-1.9-1-1.9,1-7.8,4.1,1.5-8.7.3-2.1-1.5-1.4L8.3,20.9l8.8-1.3,2-.3,1-1.8,3.9-8M24,3a2.1,2.1,0,0,0-1.8,1.1L16.5,15.7,3.7,17.5A2.1,2.1,0,0,0,2.6,21l9.2,8.9L9.7,42.7A2,2,0,0,0,11.6,45l1-.2,11.4-6,11.4,6,1,.2a2,2,0,0,0,1.9-2.3L36.2,29.9,45.4,21a2.1,2.1,0,0,0-1.1-3.5L31.5,15.7,25.8,4.1A2.1,2.1,0,0,0,24,3Z" fill="#bfbfbf"/>
        </g>
      </g>
    </g>
    <g id="Group_113" data-name="Group 113" transform="translate(119 -582)">
      <g id="Layer_2-3" data-name="Layer 2" transform="translate(188.84 746.84)">
        <g id="invisible_box-3" data-name="invisible box">
          <rect id="Rectangle_32-2" data-name="Rectangle 32" width="34" height="34" transform="translate(0.16 0.16)" fill="none"/>
        </g>
        <g id="icons_Q2-3" data-name="icons Q2" transform="translate(1.448 2.145)">
          <path id="Path_247-2" data-name="Path 247" d="M17.737,3a1.5,1.5,0,0,0-1.287.786L12.374,12.08,3.223,13.367a1.5,1.5,0,0,0-.786,2.5l6.578,6.363-1.5,9.152a1.43,1.43,0,0,0,1.358,1.644l.715-.143,8.151-4.29,8.151,4.29.715.143a1.43,1.43,0,0,0,1.358-1.644l-1.5-9.152,6.578-6.363a1.5,1.5,0,0,0-.786-2.5L23.1,12.08,19.024,3.786A1.5,1.5,0,0,0,17.737,3Z" transform="translate(-2.025 -3)" fill="#fff"/>
        </g>
      </g>
      <g id="Layer_2-4" data-name="Layer 2" transform="translate(205 716)">
        <g id="invisible_box-4" data-name="invisible box" transform="translate(-23 24)">
          <rect id="Rectangle_31-2" data-name="Rectangle 31" width="48" height="48" fill="none"/>
        </g>
        <g id="icons_Q2-4" data-name="icons Q2" transform="translate(-23 24)">
          <path id="Path_246-2" data-name="Path 246" d="M24,9.5l3.9,8,1,1.8,2,.3,8.8,1.3-6.3,6.2-1.5,1.4.3,2.1,1.5,8.7-7.8-4.1-1.9-1-1.9,1-7.8,4.1,1.5-8.7.3-2.1-1.5-1.4L8.3,20.9l8.8-1.3,2-.3,1-1.8,3.9-8M24,3a2.1,2.1,0,0,0-1.8,1.1L16.5,15.7,3.7,17.5A2.1,2.1,0,0,0,2.6,21l9.2,8.9L9.7,42.7A2,2,0,0,0,11.6,45l1-.2,11.4-6,11.4,6,1,.2a2,2,0,0,0,1.9-2.3L36.2,29.9,45.4,21a2.1,2.1,0,0,0-1.1-3.5L31.5,15.7,25.8,4.1A2.1,2.1,0,0,0,24,3Z" fill="#bfbfbf"/>
        </g>
      </g>
    </g>
    <g id="Group_114" data-name="Group 114" transform="translate(167 -582)">
      <g id="Layer_2-5" data-name="Layer 2" transform="translate(188.84 746.84)">
        <g id="invisible_box-5" data-name="invisible box">
          <rect id="Rectangle_32-3" data-name="Rectangle 32" width="34" height="34" transform="translate(0.16 0.16)" fill="none"/>
        </g>
        <g id="icons_Q2-5" data-name="icons Q2" transform="translate(1.448 2.145)">
          <path id="Path_247-3" data-name="Path 247" d="M17.737,3a1.5,1.5,0,0,0-1.287.786L12.374,12.08,3.223,13.367a1.5,1.5,0,0,0-.786,2.5l6.578,6.363-1.5,9.152a1.43,1.43,0,0,0,1.358,1.644l.715-.143,8.151-4.29,8.151,4.29.715.143a1.43,1.43,0,0,0,1.358-1.644l-1.5-9.152,6.578-6.363a1.5,1.5,0,0,0-.786-2.5L23.1,12.08,19.024,3.786A1.5,1.5,0,0,0,17.737,3Z" transform="translate(-2.025 -3)" fill="#fff"/>
        </g>
      </g>
      <g id="Layer_2-6" data-name="Layer 2" transform="translate(205 716)">
        <g id="invisible_box-6" data-name="invisible box" transform="translate(-23 24)">
          <rect id="Rectangle_31-3" data-name="Rectangle 31" width="48" height="48" fill="none"/>
        </g>
        <g id="icons_Q2-6" data-name="icons Q2" transform="translate(-23 24)">
          <path id="Path_246-3" data-name="Path 246" d="M24,9.5l3.9,8,1,1.8,2,.3,8.8,1.3-6.3,6.2-1.5,1.4.3,2.1,1.5,8.7-7.8-4.1-1.9-1-1.9,1-7.8,4.1,1.5-8.7.3-2.1-1.5-1.4L8.3,20.9l8.8-1.3,2-.3,1-1.8,3.9-8M24,3a2.1,2.1,0,0,0-1.8,1.1L16.5,15.7,3.7,17.5A2.1,2.1,0,0,0,2.6,21l9.2,8.9L9.7,42.7A2,2,0,0,0,11.6,45l1-.2,11.4-6,11.4,6,1,.2a2,2,0,0,0,1.9-2.3L36.2,29.9,45.4,21a2.1,2.1,0,0,0-1.1-3.5L31.5,15.7,25.8,4.1A2.1,2.1,0,0,0,24,3Z" fill="#bfbfbf"/>
        </g>
      </g>
    </g>
    <g id="Layer_2-7" data-name="Layer 2" transform="translate(157 158)">
      <g id="invisible_box-7" data-name="invisible box">
        <rect id="Rectangle_32-4" data-name="Rectangle 32" width="48" height="48" fill="none"/>
      </g>
      <g id="icons_Q2-7" data-name="icons Q2">
        <path id="Path_247-4" data-name="Path 247" d="M24,3a2.1,2.1,0,0,0-1.8,1.1L16.5,15.7,3.7,17.5A2.1,2.1,0,0,0,2.6,21l9.2,8.9L9.7,42.7A2,2,0,0,0,11.6,45l1-.2,11.4-6,11.4,6,1,.2a2,2,0,0,0,1.9-2.3L36.2,29.9,45.4,21a2.1,2.1,0,0,0-1.1-3.5L31.5,15.7,25.8,4.1A2.1,2.1,0,0,0,24,3Z" fill="#ffea20"/>
      </g>
    </g>
    <g id="Layer_2-8" data-name="Layer 2" transform="translate(205 158)">
      <g id="invisible_box-8" data-name="invisible box">
        <rect id="Rectangle_32-5" data-name="Rectangle 32" width="48" height="48" fill="none"/>
      </g>
      <g id="icons_Q2-8" data-name="icons Q2">
        <path id="Path_247-5" data-name="Path 247" d="M24,3a2.1,2.1,0,0,0-1.8,1.1L16.5,15.7,3.7,17.5A2.1,2.1,0,0,0,2.6,21l9.2,8.9L9.7,42.7A2,2,0,0,0,11.6,45l1-.2,11.4-6,11.4,6,1,.2a2,2,0,0,0,1.9-2.3L36.2,29.9,45.4,21a2.1,2.1,0,0,0-1.1-3.5L31.5,15.7,25.8,4.1A2.1,2.1,0,0,0,24,3Z" fill="#ffea20"/>
      </g>
    </g>
  </g>
</svg>
