<svg xmlns="http://www.w3.org/2000/svg" width="240" height="48" viewBox="0 0 240 48">
  <g id="_5stars" data-name="5stars" transform="translate(-157 -362)">
    <g id="Layer_2" data-name="Layer 2" transform="translate(157 362)">
      <g id="invisible_box" data-name="invisible box">
        <rect id="Rectangle_32" data-name="Rectangle 32" width="48" height="48" fill="none"/>
      </g>
      <g id="icons_Q2" data-name="icons Q2">
        <path id="Path_247" data-name="Path 247" d="M24,3a2.1,2.1,0,0,0-1.8,1.1L16.5,15.7,3.7,17.5A2.1,2.1,0,0,0,2.6,21l9.2,8.9L9.7,42.7A2,2,0,0,0,11.6,45l1-.2,11.4-6,11.4,6,1,.2a2,2,0,0,0,1.9-2.3L36.2,29.9,45.4,21a2.1,2.1,0,0,0-1.1-3.5L31.5,15.7,25.8,4.1A2.1,2.1,0,0,0,24,3Z" fill="#ffea20"/>
      </g>
    </g>
    <g id="Layer_2-2" data-name="Layer 2" transform="translate(205 362)">
      <g id="invisible_box-2" data-name="invisible box">
        <rect id="Rectangle_32-2" data-name="Rectangle 32" width="48" height="48" fill="none"/>
      </g>
      <g id="icons_Q2-2" data-name="icons Q2">
        <path id="Path_247-2" data-name="Path 247" d="M24,3a2.1,2.1,0,0,0-1.8,1.1L16.5,15.7,3.7,17.5A2.1,2.1,0,0,0,2.6,21l9.2,8.9L9.7,42.7A2,2,0,0,0,11.6,45l1-.2,11.4-6,11.4,6,1,.2a2,2,0,0,0,1.9-2.3L36.2,29.9,45.4,21a2.1,2.1,0,0,0-1.1-3.5L31.5,15.7,25.8,4.1A2.1,2.1,0,0,0,24,3Z" fill="#ffea20"/>
      </g>
    </g>
    <g id="Layer_2-3" data-name="Layer 2" transform="translate(253 362)">
      <g id="invisible_box-3" data-name="invisible box">
        <rect id="Rectangle_32-3" data-name="Rectangle 32" width="48" height="48" fill="none"/>
      </g>
      <g id="icons_Q2-3" data-name="icons Q2">
        <path id="Path_247-3" data-name="Path 247" d="M24,3a2.1,2.1,0,0,0-1.8,1.1L16.5,15.7,3.7,17.5A2.1,2.1,0,0,0,2.6,21l9.2,8.9L9.7,42.7A2,2,0,0,0,11.6,45l1-.2,11.4-6,11.4,6,1,.2a2,2,0,0,0,1.9-2.3L36.2,29.9,45.4,21a2.1,2.1,0,0,0-1.1-3.5L31.5,15.7,25.8,4.1A2.1,2.1,0,0,0,24,3Z" fill="#ffea20"/>
      </g>
    </g>
    <g id="Layer_2-4" data-name="Layer 2" transform="translate(301 362)">
      <g id="invisible_box-4" data-name="invisible box">
        <rect id="Rectangle_32-4" data-name="Rectangle 32" width="48" height="48" fill="none"/>
      </g>
      <g id="icons_Q2-4" data-name="icons Q2">
        <path id="Path_247-4" data-name="Path 247" d="M24,3a2.1,2.1,0,0,0-1.8,1.1L16.5,15.7,3.7,17.5A2.1,2.1,0,0,0,2.6,21l9.2,8.9L9.7,42.7A2,2,0,0,0,11.6,45l1-.2,11.4-6,11.4,6,1,.2a2,2,0,0,0,1.9-2.3L36.2,29.9,45.4,21a2.1,2.1,0,0,0-1.1-3.5L31.5,15.7,25.8,4.1A2.1,2.1,0,0,0,24,3Z" fill="#ffea20"/>
      </g>
    </g>
    <g id="Layer_2-5" data-name="Layer 2" transform="translate(349 362)">
      <g id="invisible_box-5" data-name="invisible box">
        <rect id="Rectangle_32-5" data-name="Rectangle 32" width="48" height="48" fill="none"/>
      </g>
      <g id="icons_Q2-5" data-name="icons Q2">
        <path id="Path_247-5" data-name="Path 247" d="M24,3a2.1,2.1,0,0,0-1.8,1.1L16.5,15.7,3.7,17.5A2.1,2.1,0,0,0,2.6,21l9.2,8.9L9.7,42.7A2,2,0,0,0,11.6,45l1-.2,11.4-6,11.4,6,1,.2a2,2,0,0,0,1.9-2.3L36.2,29.9,45.4,21a2.1,2.1,0,0,0-1.1-3.5L31.5,15.7,25.8,4.1A2.1,2.1,0,0,0,24,3Z" fill="#ffea20"/>
      </g>
    </g>
  </g>
</svg>
