<svg id="experience" xmlns="http://www.w3.org/2000/svg" width="47" height="47" viewBox="0 0 47 47">
  <g id="invisible_box" data-name="invisible box">
    <rect id="Rectangle_29" data-name="Rectangle 29" width="47" height="47" transform="translate(0)" fill="none"/>
  </g>
  <g id="icons_Q2" data-name="icons Q2" transform="translate(1.958 1.958)">
    <path id="Path_243" data-name="Path 243" d="M23.542,2A21.444,21.444,0,1,0,38.8,8.28,21.542,21.542,0,0,0,23.542,2Zm0,39.167A17.625,17.625,0,1,1,41.167,23.542,17.625,17.625,0,0,1,23.542,41.167Z" transform="translate(-2 -2)" fill="#4e7180"/>
    <path id="Path_244" data-name="Path 244" d="M23.958,20A1.958,1.958,0,0,0,22,21.958v11.75a1.958,1.958,0,1,0,3.917,0V21.958A1.958,1.958,0,0,0,23.958,20Z" transform="translate(-2.417 -2.375)" fill="#4e7180"/>
    <ellipse id="Ellipse_8" data-name="Ellipse 8" cx="1.5" cy="2" rx="1.5" ry="2" transform="translate(20.042 10.042)" fill="#4e7180"/>
  </g>
</svg>
