<svg id="create" xmlns="http://www.w3.org/2000/svg" width="48" height="48" viewBox="0 0 48 48">
  <g id="invisible_box" data-name="invisible box">
    <rect id="Rectangle_54" data-name="Rectangle 54" width="48" height="48" fill="none"/>
  </g>
  <g id="icons_Q2" data-name="icons Q2">
    <path id="Path_276" data-name="Path 276" d="M43.4,18.8,29.3,4.6a1.9,1.9,0,0,0-2.8,0L4.6,26.5A2,2,0,0,0,4,27.9V42a2,2,0,0,0,2,2H20.1a2,2,0,0,0,1.4-.6L43.4,21.6a1.9,1.9,0,0,0,0-2.8ZM19.3,40H8V28.7L20.5,16.3,31.7,27.6ZM34.6,24.8,23.3,13.5l4.6-4.7L39.2,20.2Z" fill="#fff"/>
  </g>
</svg>
