<svg xmlns="http://www.w3.org/2000/svg" width="31.632" height="30.849" viewBox="0 0 31.632 30.849">
  <path id="f-github" d="M15.816.445a15.817,15.817,0,0,0-5,30.821c.791.149,1.081-.34,1.081-.76,0-.376-.013-1.371-.02-2.689-4.4.954-5.327-2.122-5.327-2.122a4.192,4.192,0,0,0-1.76-2.313c-1.433-.981.111-.961.111-.961a3.316,3.316,0,0,1,2.422,1.629,3.37,3.37,0,0,0,4.606,1.315,3.372,3.372,0,0,1,1-2.115c-3.512-.4-7.2-1.756-7.2-7.816a6.1,6.1,0,0,1,1.628-4.244,5.623,5.623,0,0,1,.138-4.186s1.325-.424,4.349,1.621a14.911,14.911,0,0,1,7.908,0c3.005-2.046,4.33-1.621,4.33-1.621a5.779,5.779,0,0,1,.158,4.186,6.127,6.127,0,0,1,1.621,4.244c0,6.076-3.7,7.414-7.216,7.8a3.786,3.786,0,0,1,1.068,2.926c0,2.117-.02,3.817-.02,4.331,0,.415.277.909,1.087.751A15.8,15.8,0,0,0,15.816.445" transform="translate(0 -0.446)" fill="#0d1f26"/>
</svg>
