<svg xmlns="http://www.w3.org/2000/svg" width="30.849" height="30.849" viewBox="0 0 30.849 30.849">
  <g id="f-jobstreet" transform="translate(0 0)">
    <g id="Group_134" data-name="Group 134" transform="translate(0 0)">
      <path id="Subtraction_1" data-name="Subtraction 1" d="M-430.628-1096.159a15.324,15.324,0,0,1-10.907-4.518,15.323,15.323,0,0,1-4.518-10.907,15.324,15.324,0,0,1,4.518-10.907,15.324,15.324,0,0,1,10.907-4.518,15.323,15.323,0,0,1,10.907,4.518,15.324,15.324,0,0,1,4.518,10.907,15.324,15.324,0,0,1-4.518,10.907A15.323,15.323,0,0,1-430.628-1096.159Zm1.33-6.546a1.047,1.047,0,0,0-1.046,1.046,1.047,1.047,0,0,0,1.046,1.046,1.047,1.047,0,0,0,1.046-1.046A1.047,1.047,0,0,0-429.3-1102.7Zm3.128-3.353a1.193,1.193,0,0,0-1.192,1.193,1.193,1.193,0,0,0,1.192,1.193,1.194,1.194,0,0,0,1.193-1.193A1.194,1.194,0,0,0-426.169-1106.057Zm-3.128.147a1.047,1.047,0,0,0-1.046,1.046,1.047,1.047,0,0,0,1.046,1.046,1.047,1.047,0,0,0,1.046-1.046A1.047,1.047,0,0,0-429.3-1105.91Zm6.472-3.5a1.339,1.339,0,0,0-1.337,1.337,1.339,1.339,0,0,0,1.337,1.337,1.339,1.339,0,0,0,1.337-1.337A1.339,1.339,0,0,0-422.825-1109.407Zm-3.344.145a1.193,1.193,0,0,0-1.192,1.193,1.193,1.193,0,0,0,1.192,1.192,1.194,1.194,0,0,0,1.193-1.192A1.194,1.194,0,0,0-426.169-1109.263Zm-3.128.147a1.047,1.047,0,0,0-1.046,1.046,1.047,1.047,0,0,0,1.046,1.046,1.047,1.047,0,0,0,1.046-1.046A1.047,1.047,0,0,0-429.3-1109.116Zm-3,.136a.911.911,0,0,0-.91.91.911.911,0,0,0,.91.91.911.911,0,0,0,.91-.91A.911.911,0,0,0-432.294-1108.98Zm-2.51.135a.775.775,0,0,0-.774.775.775.775,0,0,0,.774.774.775.775,0,0,0,.774-.774A.775.775,0,0,0-434.8-1108.845Zm-2.413.117a.659.659,0,0,0-.658.658.659.659,0,0,0,.658.658.659.659,0,0,0,.659-.658A.659.659,0,0,0-437.217-1108.728Zm-2.055.116a.542.542,0,0,0-.542.542.542.542,0,0,0,.542.542.542.542,0,0,0,.542-.542A.542.542,0,0,0-439.272-1108.612Zm-1.918.038a.5.5,0,0,0-.5.5.5.5,0,0,0,.5.5.5.5,0,0,0,.5-.5A.5.5,0,0,0-441.19-1108.574Zm-1.7.183a.322.322,0,0,0-.321.321.322.322,0,0,0,.321.321.322.322,0,0,0,.321-.321A.322.322,0,0,0-442.886-1108.391Zm23.4-4.428a1.493,1.493,0,0,0-1.491,1.491,1.493,1.493,0,0,0,1.491,1.491,1.493,1.493,0,0,0,1.491-1.491A1.493,1.493,0,0,0-419.483-1112.819Zm-3.343.154a1.339,1.339,0,0,0-1.337,1.337,1.339,1.339,0,0,0,1.337,1.337,1.339,1.339,0,0,0,1.337-1.337A1.339,1.339,0,0,0-422.825-1112.666Zm-3.344.145a1.193,1.193,0,0,0-1.192,1.193,1.193,1.193,0,0,0,1.192,1.193,1.194,1.194,0,0,0,1.193-1.193A1.194,1.194,0,0,0-426.169-1112.521Zm-3.128.147a1.047,1.047,0,0,0-1.046,1.046,1.047,1.047,0,0,0,1.046,1.046,1.047,1.047,0,0,0,1.046-1.046A1.047,1.047,0,0,0-429.3-1112.374Zm-3,.136a.911.911,0,0,0-.91.91.911.911,0,0,0,.91.91.911.911,0,0,0,.91-.91A.911.911,0,0,0-432.294-1112.238Zm-2.51.136a.775.775,0,0,0-.774.774.775.775,0,0,0,.774.774.775.775,0,0,0,.774-.774A.775.775,0,0,0-434.8-1112.1Zm-2.413.116a.659.659,0,0,0-.658.658.659.659,0,0,0,.658.658.659.659,0,0,0,.659-.658A.659.659,0,0,0-437.217-1111.986Zm-2.055.116a.542.542,0,0,0-.542.542.542.542,0,0,0,.542.542.542.542,0,0,0,.542-.542A.542.542,0,0,0-439.272-1111.87Zm-1.918.038a.5.5,0,0,0-.5.5.5.5,0,0,0,.5.5.5.5,0,0,0,.5-.5A.5.5,0,0,0-441.19-1111.832Zm-1.7.183a.322.322,0,0,0-.321.321.322.322,0,0,0,.321.321.322.322,0,0,0,.321-.321A.322.322,0,0,0-442.886-1111.649Zm20.061-4.329a1.339,1.339,0,0,0-1.337,1.337,1.339,1.339,0,0,0,1.337,1.337,1.339,1.339,0,0,0,1.337-1.337A1.339,1.339,0,0,0-422.825-1115.978Zm-3.344.145a1.193,1.193,0,0,0-1.192,1.193,1.193,1.193,0,0,0,1.192,1.193,1.194,1.194,0,0,0,1.193-1.193A1.194,1.194,0,0,0-426.169-1115.833Zm-3.128.147a1.047,1.047,0,0,0-1.046,1.046,1.047,1.047,0,0,0,1.046,1.046,1.047,1.047,0,0,0,1.046-1.046A1.047,1.047,0,0,0-429.3-1115.687Zm-3,.136a.911.911,0,0,0-.91.91.911.911,0,0,0,.91.91.911.911,0,0,0,.91-.91A.911.911,0,0,0-432.294-1115.551Zm-2.51.135a.775.775,0,0,0-.774.775.775.775,0,0,0,.774.774.775.775,0,0,0,.774-.774A.775.775,0,0,0-434.8-1115.416Zm-2.413.117a.659.659,0,0,0-.658.658.659.659,0,0,0,.658.658.659.659,0,0,0,.659-.658A.659.659,0,0,0-437.217-1115.3Zm-2.055.116a.542.542,0,0,0-.542.542.542.542,0,0,0,.542.542.542.542,0,0,0,.542-.542A.542.542,0,0,0-439.272-1115.183Zm-1.918.038a.5.5,0,0,0-.5.5.5.5,0,0,0,.5.5.5.5,0,0,0,.5-.5A.5.5,0,0,0-441.19-1115.145Zm-1.7.183a.322.322,0,0,0-.321.321.322.322,0,0,0,.321.321.322.322,0,0,0,.321-.321A.322.322,0,0,0-442.886-1114.962Zm16.717-4.11a1.193,1.193,0,0,0-1.192,1.193,1.193,1.193,0,0,0,1.192,1.193,1.194,1.194,0,0,0,1.193-1.193A1.194,1.194,0,0,0-426.169-1119.073Zm-3.128.147a1.047,1.047,0,0,0-1.046,1.046,1.047,1.047,0,0,0,1.046,1.046,1.047,1.047,0,0,0,1.046-1.046A1.047,1.047,0,0,0-429.3-1118.926Zm0-3.237a1.047,1.047,0,0,0-1.046,1.046,1.047,1.047,0,0,0,1.046,1.046,1.047,1.047,0,0,0,1.046-1.046A1.047,1.047,0,0,0-429.3-1122.163Z" transform="translate(446.052 1127.008)" fill="#0d1f26"/>
    </g>
  </g>
</svg>
