<svg id="f-kalibrr" xmlns="http://www.w3.org/2000/svg" width="30.849" height="30.849" viewBox="0 0 30.849 30.849">
  <path id="Path_270" data-name="Path 270" d="M0,15.424A15.424,15.424,0,1,0,15.424,0,15.425,15.425,0,0,0,0,15.424ZM20.13,6.033a.789.789,0,0,1,.947-.3A2.472,2.472,0,0,1,22.4,9.655c-1.173,1.58-2.414,3.109-3.627,4.659-.083.106-.169.213-.252.319-.618.792-.608.784.091,1.55,1.237,1.352,2.492,2.688,3.683,4.081a2.573,2.573,0,0,1-1.129,4.108,1.065,1.065,0,0,1-1.274-.326c-1.9-2.187-3.811-4.361-5.721-6.536a5.254,5.254,0,0,1-.641-1.056,1.23,1.23,0,0,0-.113.777c-.008,1.539.01,3.077-.01,4.616a2.438,2.438,0,0,1-2.618,2.643c-2.047.016-1.785.176-1.792-1.758-.011-2.806,0-5.612,0-8.417a5.473,5.473,0,0,1,.055-.947,2.185,2.185,0,0,1,4.342.18c.033.372.005.752.005,1.194,2.2-3.034,4.524-5.831,6.736-8.711ZM11.24,5.651A2.213,2.213,0,0,1,13.43,7.925a2.215,2.215,0,0,1-2.293,2.244A2.284,2.284,0,0,1,8.974,7.919,2.213,2.213,0,0,1,11.24,5.651Z" fill="#0d1f26"/>
</svg>
