<svg xmlns="http://www.w3.org/2000/svg" width="30.849" height="30.849" viewBox="0 0 30.849 30.849">
  <path id="f-linkedin" d="M28.238,1.928H7.752A5.2,5.2,0,0,0,2.571,7.11V27.595a5.2,5.2,0,0,0,5.182,5.182H28.238a5.2,5.2,0,0,0,5.182-5.182V7.11a5.2,5.2,0,0,0-5.182-5.182Zm-14.1,25.064H10.283V13.5h3.856v13.5ZM12.211,11.568A1.928,1.928,0,1,1,14.139,9.64,1.928,1.928,0,0,1,12.211,11.568ZM27.635,26.992H23.779V19.28a1.928,1.928,0,1,0-3.856,0v7.712H16.067V13.5h3.856V15.89c.8-1.092,2.011-2.394,3.374-2.394a4.6,4.6,0,0,1,4.338,4.82v8.676Z" transform="translate(-2.571 -1.928)" fill="#0d1f26"/>
</svg>
