<svg id="f-phone" xmlns="http://www.w3.org/2000/svg" width="31" height="31" viewBox="0 0 31 31">
  <g id="invisible_box" data-name="invisible box">
    <rect id="Rectangle_51" data-name="Rectangle 51" width="31" height="31" fill="none"/>
    <rect id="Rectangle_52" data-name="Rectangle 52" width="31" height="31" fill="none"/>
    <rect id="Rectangle_53" data-name="Rectangle 53" width="31" height="31" fill="none"/>
  </g>
  <g id="icons_Q2" data-name="icons Q2" transform="translate(5.784 1.285)">
    <path id="Path_275" data-name="Path 275" d="M27,2H10.285A1.285,1.285,0,0,0,9,3.285V28.993a1.285,1.285,0,0,0,1.285,1.285H27a1.285,1.285,0,0,0,1.285-1.285V3.285A1.285,1.285,0,0,0,27,2ZM19.283,26.422H18a1.285,1.285,0,0,1,0-2.571h1.285a1.285,1.285,0,0,1,0,2.571Z" transform="translate(-9 -2)" fill="#0d1f26"/>
  </g>
</svg>
