<svg xmlns="http://www.w3.org/2000/svg" width="30.851" height="30.849" viewBox="0 0 30.851 30.849">
  <g id="f-upwork" transform="translate(0.004 0)">
    <g id="Photo_Enhancement" data-name="Photo Enhancement" transform="translate(-0.006)">
      <path id="Subtraction_2" data-name="Subtraction 2" d="M-946.719-1432.151h0a15.437,15.437,0,0,1-9.945-3.638,15.441,15.441,0,0,1-5.257-9.212,15.429,15.429,0,0,1,2-10.547,15.429,15.429,0,0,1,8.4-6.683,12.664,12.664,0,0,1,1.5-.365,11.807,11.807,0,0,0,1.614-.4h3.114a7.782,7.782,0,0,0,1.889.384,15.306,15.306,0,0,1,7.335,3.888,15.3,15.3,0,0,1,4.228,7.145c.155.512.263,1.047.368,1.564.057.281.116.571.182.854v3.322c-.127,0-.129.1-.132.2,0,.024,0,.046,0,.066a15.432,15.432,0,0,1-5.011,9.495,15.429,15.429,0,0,1-9.993,3.925Zm-1.734-18.264a18.973,18.973,0,0,0,1.939,4.085,1.3,1.3,0,0,1,.187,1.038c-.188,1.029-.372,2.079-.55,3.094-.158.9-.322,1.838-.489,2.76-.052.262-.041.421.037.515a.379.379,0,0,0,.31.108,1.34,1.34,0,0,0,.161-.011c.2-.018.413-.027.618-.027s.413.009.618.027c.309,0,.452-.07.529-.259a1.015,1.015,0,0,0,.083-.322c.076-.557.164-1.152.275-1.872l.089-.557.02-.124,0-.011c.094-.589.192-1.2.289-1.828a5.915,5.915,0,0,0,3.633,1.348,5.011,5.011,0,0,0,4.151-2.178,5.343,5.343,0,0,0,.873-2.949,5.356,5.356,0,0,0-2.409-4.493,4.976,4.976,0,0,0-2.626-.748,4.981,4.981,0,0,0-1.391.2,4.884,4.884,0,0,0-3.508,3.57c-.072-.2-.141-.391-.2-.56-.16-.441-.3-.821-.431-1.236a4.982,4.982,0,0,1-.137-.6,1.583,1.583,0,0,0-.423-1.022,1.049,1.049,0,0,0-.633-.154c-.158,0-.325.014-.5.028-.2.016-.395.032-.6.032a5.875,5.875,0,0,1-.63-.048,5.845,5.845,0,0,0-.632-.048,1.039,1.039,0,0,0-.72.211c-.318.281-.255.84-.194,1.381a5.989,5.989,0,0,1,.049.643v.021c.012.346.019.7.018,1.041,0,.9-.046,1.8-.133,2.695a2.3,2.3,0,0,1-2.167,2.094c-.046,0-.092,0-.136,0a2.327,2.327,0,0,1-2.263-1.827,4.572,4.572,0,0,1-.146-1.381c0-.47-.006-.943-.011-1.4v-.006c0-.286-.007-.572-.009-.857v-.968c0-.329.01-.63.021-.919a.762.762,0,0,0-.133-.571.777.777,0,0,0-.573-.146l-.06,0c-.7.018-1.087.029-1.285.2-.257.177-.26.553-.243,1.46a26.509,26.509,0,0,0,.135,4.712,4.627,4.627,0,0,0,1.982,3.043,4.594,4.594,0,0,0,2.558.775,4.619,4.619,0,0,0,1.013-.113,4.726,4.726,0,0,0,3.3-2.875,4.7,4.7,0,0,0,.342-1.681v-3.3Z" transform="translate(962.14 1463)" fill="#0d1f26"/>
      <path id="Path_274" data-name="Path 274" d="M23.517,14.824a3,3,0,0,1-2.076,3.114,3.7,3.7,0,0,1-3.768-1.63.612.612,0,0,1-.093-.457,9.03,9.03,0,0,1,.778-2.595,2.647,2.647,0,0,1,2.865-1.5,2.771,2.771,0,0,1,2.263,2.5C23.5,14.492,23.507,14.7,23.517,14.824Z" transform="translate(0.672 0.444)" fill="#0d1f26"/>
    </g>
  </g>
</svg>
