<svg xmlns="http://www.w3.org/2000/svg" viewBox="0 0 389 129"><defs><style>.cls-1{fill:#fdfdfe;}.cls-2{fill:#4676bb;}.cls-3{fill:#2f469d;}.cls-4{fill:#7bb8e5;}</style></defs><g id="Layer_2" data-name="Layer 2"><g id="Layer_1-2" data-name="Layer 1"><path class="cls-1" d="M194.51,128.9q-95.22,0-190.42.1C.67,129,0,128.33,0,124.94Q.22,64.25,0,3.55C0,.59.61,0,3.59,0Q194.51.14,385.43,0c3,0,3.58.59,3.57,3.55q-.18,60.95,0,121.89c0,2.95-.6,3.55-3.57,3.55Q290,128.82,194.51,128.9ZM64.66,25.72c-1.64-.22-4.4.51-7.15,1.08C37.33,31,24.48,49.22,26.34,67.89c2,19.81,14.66,32.72,34.52,35.87,10.25,1.63,19.69-1.27,28.12-7.24,2.19-1.55,3.63-3.6,1.85-6.31s-4.32-2.56-6.89-1c-1.13.68-2.22,1.45-3.39,2.07-10.52,5.62-21,5.51-31.1-.84-9.87-6.23-14.82-15.49-14.27-27.1,1.1-23.27,27.29-36.14,47.39-23.43,2.83,1.79,5.77,3.58,8.15,0s-.55-5.64-3.3-7.45C80.89,28.09,73.67,26.06,64.66,25.72ZM80.89,69.47c-2.13,5.91-5.83,9.59-11.57,10.79-6.31,1.32-11.87-.35-16-5.45a15.71,15.71,0,0,1-.09-19.64C57.68,49.44,65.81,47.58,73,51c3,1.45,5.89,2.25,7.59-1.24s-.83-5.45-3.71-6.89a24.91,24.91,0,0,0-12-2.38C51.12,40.8,40.9,51.2,40.88,64.87A24.26,24.26,0,0,0,64.71,89.48c13.9.32,25.41-9.86,26-23.08.17-3.46-1.22-5.81-5-5.88-5-.08-10-.05-14.94,0-2.88,0-4.87,1.37-4.88,4.4,0,3.29,2.1,4.58,5.22,4.56S77.34,69.47,80.89,69.47Zm96.49-8.18c-2.49,0-5,.1-7.48,0-2.81-.14-4.7.13-4.63,3.85.07,3.49,1.68,4.21,4.62,4.08,2.49-.1,5,.12,7.47,0,4-.27,3.59,1.5,2.2,4.08-5.36,10-21.1,10.66-27.68,1.21-4.68-6.72-3.62-16.35,2.38-21.56a16.15,16.15,0,0,1,22.45.85c3.32,3.37,5.48,1.09,7.62-.54,3-2.34.09-4.15-1.35-5.56-7.79-7.63-17.18-8.84-27.13-5.58-9.23,3-15.19,11.93-15.59,22a24.19,24.19,0,0,0,20.53,25.18c13.59,2,25.21-5.49,28.36-18.15,2-8.23.88-9.8-7.29-9.81Zm98,22.92c-1,5.41,2.26,5,5.42,5.09,4.05.12,3.47-2.58,3.48-5,0-9.74-.09-19.47,0-29.2,0-2.85-.66-4.11-3.81-4.25-4-.17-6.06,1-5.26,5.47-7.48-7.37-17.44-7.76-24.51-1.24-7.29,6.72-7.86,20.34-1.31,28.43C254.26,89.43,265.35,93,275.39,84.21ZM219.82,40.55c-11.75,0-20.82,6.78-23.89,17.77-2.92,10.49,1.5,22.06,10.56,27.62s22.12,4.52,30.08-2.51c4.83-4.26,4.58-6.47-.67-8.76-2.86-1.25-3.77.81-5.27,2.25-4.71,4.54-11.73,5.47-18,2.47A15.83,15.83,0,0,1,203.84,64c.59-7.11,4.72-12.52,11-14.36,6.46-1.89,12.2-.75,16.69,4.43,3.16,3.65,5.46.38,7.65-.94,2.85-1.7.27-3.55-.83-4.77A22.91,22.91,0,0,0,219.82,40.55Zm117.4,14.21c0-4.71-.23-8.52.07-12.29.27-3.41-1.15-4.19-4.27-4.12-2.86.06-4.69.31-4.65,3.93q.22,21.28,0,42.57c0,3.48,1.27,4.51,4.7,4.51s4.29-1.26,4.19-4.39c-.18-5.6-.21-11.23,0-16.83.25-6.43,3.88-10.09,9.32-9.87,5.25.21,8.29,3.83,8.37,10.18.08,5.61.15,11.23,0,16.83-.1,3,1.05,4.16,4.06,4,2.58-.12,5.08.23,5-3.63-.14-6.43.22-12.88-.12-19.3C363.36,56.87,357.32,51,348.49,51A19.49,19.49,0,0,0,337.22,54.76Zm-31.08-4.27c-7.91,0-13.94,3.9-14.89,9.62-1,6,2.54,10,11.16,12.65,2.52.77,5,1.5,7.52,2.4,1.6.58,3.18,1.61,2.93,3.51-.23,1.75-1.8,2.69-3.48,3.15-3.74,1-7,.28-9.09-3.13-2.24-3.66-6-3-8.21-1.57-2.82,1.8-.46,4.7,1.12,6.71,4,5.06,9.56,6,15.61,5.64,7-.45,11.84-4.17,12.55-9.67.78-6-2.26-9.9-9.64-12.29-3-1-6-1.88-8.92-2.88-1.5-.51-2.62-1.43-2.57-3.21.07-2.09,1.6-2.69,3.26-3.15,3.6-1,6.66-.23,8.49,3.16,2,3.73,5.58,2.54,7.81,1.61,3.12-1.3.59-4.11-.31-5.88C316.76,51.79,311.74,50.45,306.14,50.49ZM119.74,64.7c.45-7.83-1.88-15.3-5-22.62C113.38,38.89,111,37.83,108,39s-2.77,4-1.7,6.28c6.12,13.2,6.1,26.3,0,39.49C105.19,87,104.88,89.84,108,91c2.8,1.07,5,.15,6.47-2.79A49.27,49.27,0,0,0,119.74,64.7Zm-14.9.35a31.61,31.61,0,0,0-3-15.79c-1.19-2.6-3-4-5.87-2.7-2.57,1.15-3.8,3.07-2.55,6a30.16,30.16,0,0,1,0,24.83c-1.24,2.88-.15,4.81,2.43,6,2.84,1.32,4.72,0,5.92-2.58A31.3,31.3,0,0,0,104.84,65.05Z"/><path class="cls-2" d="M64.66,25.72c9,.34,16.23,2.37,22.76,6.68,2.75,1.81,5.7,3.8,3.3,7.45s-5.32,1.83-8.15,0c-20.1-12.71-46.29.16-47.39,23.43-.55,11.61,4.4,20.87,14.27,27.1,10.07,6.35,20.58,6.46,31.1.84,1.17-.62,2.26-1.39,3.39-2.07,2.57-1.54,5-1.81,6.89,1S91.17,95,89,96.52c-8.43,6-17.87,8.87-28.12,7.24C41,100.61,28.31,87.7,26.34,67.89,24.48,49.22,37.33,31,57.51,26.8,60.26,26.23,63,25.5,64.66,25.72Z"/><path class="cls-3" d="M80.89,69.47c-3.55,0-6.66,0-9.78,0s-5.23-1.27-5.22-4.56c0-3,2-4.37,4.88-4.4,5-.05,10-.08,14.94,0,3.81.07,5.2,2.42,5,5.88-.62,13.22-12.13,23.4-26,23.08A24.26,24.26,0,0,1,40.88,64.87C40.9,51.2,51.12,40.8,64.8,40.45a24.91,24.91,0,0,1,12,2.38c2.88,1.44,5.41,3.38,3.71,6.89S76,52.41,73,51c-7.14-3.38-15.27-1.52-19.74,4.21a15.71,15.71,0,0,0,.09,19.64c4.15,5.1,9.71,6.77,16,5.45C75.06,79.06,78.76,75.38,80.89,69.47Z"/><path class="cls-3" d="M177.38,61.29h4.48c8.17,0,9.33,1.58,7.29,9.81C186,83.76,174.38,91.21,160.79,89.25a24.19,24.19,0,0,1-20.53-25.18c.4-10.09,6.36-19,15.59-22,10-3.26,19.34-2,27.13,5.58,1.44,1.41,4.39,3.22,1.35,5.56-2.14,1.63-4.3,3.91-7.62.54a16.15,16.15,0,0,0-22.45-.85c-6,5.21-7.06,14.84-2.38,21.56,6.58,9.45,22.32,8.74,27.68-1.21,1.39-2.58,1.79-4.35-2.2-4.08-2.48.17-5-.05-7.47,0-2.94.13-4.55-.59-4.62-4.08-.07-3.72,1.82-4,4.63-3.85C172.39,61.39,174.89,61.29,177.38,61.29Z"/><path class="cls-3" d="M275.39,84.21c-10,8.81-21.13,5.22-25.94-.73-6.55-8.09-6-21.71,1.31-28.43,7.07-6.52,17-6.13,24.51,1.24-.8-4.51,1.29-5.64,5.26-5.47,3.15.14,3.85,1.4,3.81,4.25-.14,9.73,0,19.46,0,29.2,0,2.45.57,5.15-3.48,5C277.65,89.21,274.43,89.62,275.39,84.21Zm-.14-13.92c.06-7.24-4.24-12.05-10.75-12-6.08,0-10.39,4.61-10.59,11.28S258.55,82,264.54,82.07,275.19,77.06,275.25,70.29Z"/><path class="cls-3" d="M219.82,40.54a23,23,0,0,1,18.51,7.86c1.1,1.22,3.68,3.07.83,4.77-2.19,1.32-4.49,4.59-7.65.94-4.49-5.18-10.23-6.32-16.69-4.43-6.26,1.84-10.39,7.25-11,14.36a15.83,15.83,0,0,0,8.81,15.35c6.25,3,13.27,2.07,18-2.47,1.5-1.44,2.41-3.5,5.27-2.25,5.25,2.29,5.5,4.5.67,8.76-8,7-20.94,8.11-30.08,2.51S193,68.81,195.93,58.32C199,47.33,208.07,40.58,219.82,40.54Z"/><path class="cls-3" d="M337.22,54.76A19.49,19.49,0,0,1,348.49,51c8.83,0,14.87,5.87,15.38,15.36.34,6.42,0,12.87.12,19.3.09,3.86-2.41,3.51-5,3.63-3,.15-4.16-1-4.06-4,.18-5.6.11-11.22,0-16.83-.08-6.35-3.12-10-8.37-10.18-5.44-.22-9.07,3.44-9.32,9.87-.22,5.6-.19,11.23,0,16.83.1,3.13-.81,4.39-4.19,4.39s-4.73-1-4.7-4.51q.18-21.28,0-42.57c0-3.62,1.79-3.87,4.65-3.93,3.12-.07,4.54.71,4.27,4.12C337,46.24,337.22,50.05,337.22,54.76Z"/><path class="cls-3" d="M306.14,50.49c5.6,0,10.62,1.3,13.34,6.67.9,1.77,3.43,4.58.31,5.88-2.23.93-5.79,2.12-7.81-1.61-1.83-3.39-4.89-4.16-8.49-3.16-1.66.46-3.19,1.06-3.26,3.15-.05,1.78,1.07,2.7,2.57,3.21,3,1,5.95,1.91,8.92,2.88,7.38,2.39,10.42,6.27,9.64,12.29-.71,5.5-5.57,9.22-12.55,9.67-6.05.39-11.62-.58-15.61-5.64-1.58-2-3.94-4.91-1.12-6.71,2.18-1.39,6-2.09,8.21,1.57,2.08,3.41,5.35,4.15,9.09,3.13,1.68-.46,3.25-1.4,3.48-3.15.25-1.9-1.33-2.93-2.93-3.51-2.47-.9-5-1.63-7.52-2.4-8.62-2.63-12.17-6.64-11.16-12.65C292.2,54.39,298.23,50.5,306.14,50.49Z"/><path class="cls-4" d="M119.74,64.7a49.27,49.27,0,0,1-5.3,23.54C113,91.18,110.77,92.1,108,91c-3.09-1.19-2.78-4-1.72-6.29,6.11-13.19,6.13-26.29,0-39.49-1.07-2.3-1.38-5.12,1.7-6.28s5.42-.08,6.78,3.11C117.86,49.4,120.19,56.87,119.74,64.7Z"/><path class="cls-4" d="M104.84,65.05a31.3,31.3,0,0,1-3,15.75c-1.2,2.6-3.08,3.9-5.92,2.58-2.58-1.21-3.67-3.14-2.43-6a30.16,30.16,0,0,0,0-24.83c-1.25-2.9,0-4.82,2.55-6,2.86-1.28,4.68.1,5.87,2.7A31.61,31.61,0,0,1,104.84,65.05Z"/><path class="cls-1" d="M275.25,70.29c-.06,6.77-4.65,11.83-10.71,11.78s-10.83-5.74-10.63-12.53,4.51-11.27,10.59-11.28C271,58.24,275.31,63.05,275.25,70.29Z"/></g></g></svg>