<svg id="history" xmlns="http://www.w3.org/2000/svg" width="48" height="48" viewBox="0 0 48 48">
  <g id="invisible_box" data-name="invisible box">
    <rect id="Rectangle_50" data-name="Rectangle 50" width="48" height="48" fill="none"/>
  </g>
  <g id="icons_Q2" data-name="icons Q2">
    <path id="Path_268" data-name="Path 268" d="M46,24A22,22,0,0,1,4.3,33.7a1.993,1.993,0,1,1,3.5-1.9A18,18,0,1,0,10.6,12h5.3A2.1,2.1,0,0,1,18,13.7,2,2,0,0,1,16,16H6a2,2,0,0,1-2-2V4.1A2.1,2.1,0,0,1,5.7,2,2,2,0,0,1,8,4V8.9A22,22,0,0,1,46,24Z" fill="#4e7180"/>
    <path id="Path_269" data-name="Path 269" d="M34,32a1.7,1.7,0,0,1-1-.3L22,25.1V14a2,2,0,0,1,4,0v8.9l9,5.4A1.993,1.993,0,0,1,34,32Z" fill="#4e7180"/>
  </g>
</svg>
