<?xml version="1.0" encoding="UTF-8"?>
<svg id="Layer_2" data-name="Layer 2" xmlns="http://www.w3.org/2000/svg" viewBox="0 0 331.38 204.82">
  <defs>
    <style>
      .cls-1 {
        fill: #f15d23;
      }

      .cls-2 {
        fill: #e92025;
      }

      .cls-3 {
        fill: #f49e21;
      }
    </style>
  </defs>
  <g id="Layer_1-2" data-name="Layer 1">
    <g>
      <path class="cls-2" d="M95.75,0h12.94c.12,.34,.42,.23,.65,.24,8.36,.54,16.53,2.09,24.49,4.69,11.5,3.75,22.05,9.29,31.54,16.81-.11,.72-.7,1.05-1.18,1.46-1.59,1.37-3.27,2.66-4.77,4.12-2.93,2.85-5.81,5.74-8.44,8.88-4.44,5.28-8.35,10.92-11.66,16.96-4.61,8.42-8,17.31-10.12,26.68-1.28,5.65-2.14,11.38-2.34,17.16-.21,6.09-.14,12.19,.68,18.27,.8,6.01,2.04,11.91,3.81,17.69,2.17,7.1,5.16,13.84,8.83,20.3,3.99,7.01,8.76,13.45,14.26,19.35,3.46,3.72,7.28,7.04,11.17,10.29-.23,.19-.46,.39-.7,.57-14.05,10.75-29.79,17.57-47.32,20.18-14.7,2.19-29.24,1.34-43.5-2.87-26.26-7.75-46.36-23.53-60.29-47.05-7.17-12.11-11.44-25.26-13.09-39.25-.24-2.03-.18-4.09-.71-6.09v-12.16c.35-.18,.22-.53,.24-.8,.26-4.26,.76-8.5,1.64-12.67C8.41,51.82,25.44,28.44,52.9,12.77,64.5,6.16,77.06,2.28,90.34,.71c1.8-.21,3.66-.11,5.41-.71Z"/>
      <path class="cls-3" d="M223.07,0h11.9c.18,.35,.53,.23,.8,.24,3.79,.23,7.56,.68,11.28,1.38,21.76,4.07,40.58,13.87,55.68,30.04,24.51,26.26,33.53,57.35,26.11,92.47-10.65,50.43-57.09,84.48-108.31,80.3-14.51-1.18-28.13-5.29-40.88-12.28-4.87-2.68-9.56-5.64-13.83-9.23,.3-.31,.56-.66,.89-.92,6.04-4.77,11.38-10.25,16.12-16.29,8.12-10.34,14.04-21.82,17.72-34.45,2.58-8.88,3.86-17.95,4.1-27.17,.06-2.36-.08-4.73-.18-7.09-.14-3.18-.43-6.35-.9-9.48-1.15-7.62-3.08-15.06-5.89-22.25-5.1-13.04-12.6-24.53-22.29-34.61-3.04-3.17-6.4-5.99-9.74-8.83,3.16-2.31,6.32-4.63,9.67-6.68,12.75-7.8,26.52-12.64,41.37-14.43,2.12-.26,4.27-.21,6.36-.72Z"/>
      <path class="cls-1" d="M165.38,21.74c.1,.03,.2,.06,.29,.08,3.34,2.84,6.7,5.66,9.74,8.83,9.69,10.08,17.19,21.57,22.29,34.61,2.81,7.19,4.74,14.63,5.89,22.25,.47,3.13,.76,6.3,.9,9.48,.11,2.36,.25,4.73,.18,7.09-.25,9.22-1.52,18.29-4.1,27.17-3.68,12.64-9.6,24.12-17.72,34.45-4.74,6.04-10.08,11.52-16.12,16.29-.33,.26-.6,.61-.89,.92,0,0-.12,0-.12,0,0,0-.11-.03-.11-.03-3.9-3.24-7.72-6.57-11.17-10.29-5.49-5.9-10.27-12.34-14.26-19.35-3.67-6.45-6.66-13.2-8.83-20.3-1.77-5.79-3-11.68-3.81-17.69-.81-6.08-.89-12.18-.68-18.27,.2-5.78,1.07-11.5,2.34-17.16,2.11-9.37,5.51-18.26,10.12-26.68,3.31-6.04,7.22-11.68,11.66-16.96,2.64-3.14,5.51-6.04,8.44-8.88,1.51-1.46,3.18-2.75,4.77-4.12,.48-.41,1.08-.74,1.18-1.46Z"/>
    </g>
  </g>
</svg>