<?xml version="1.0" encoding="UTF-8"?>
<svg id="Layer_2" data-name="Layer 2" xmlns="http://www.w3.org/2000/svg" viewBox="0 0 430.77 170.51">
  <defs>
    <style>
      .cls-1 {
        fill: #6dc38e;
      }

      .cls-2 {
        fill: #070909;
      }
    </style>
  </defs>
  <g id="Layer_1-2" data-name="Layer 1">
    <g>
      <rect class="cls-2" width="430.77" height="170.51" rx="35.9" ry="35.9"/>
      <g>
        <path class="cls-1" d="M114.43,65.47c1.07-.41,1.11-.97,.64-1.73-.4-.64-.71-1.33-1.06-2-.35-.67-.71-1.33-1.1-2.06,2.56-2.66,5.61-4.54,9.02-5.83,15.18-5.74,29.85,3.03,34.06,17.8,.83,2.9,1.18,6.02,1.22,9.05,.15,10.16,.06,20.32,.06,30.48,0,2.33-.57,2.91-2.88,2.91-2.99,0-5.97,0-8.96,0-2.2,0-2.78-.57-2.78-2.73,0-10.54,.02-21.08-.01-31.62,0-3.29-.71-6.43-2.74-9.12-3.55-4.7-10.48-5.92-15.65-2.74-4.04,2.48-6.1,6.11-6.09,10.88,.01,8.9,0,17.8,0,26.71,0,2.26-.57,2.84-2.81,2.84-2.9,0-5.81,0-8.71,0-1.71,0-2.36-.65-2.36-2.35,0-8.78,.02-17.55-.02-26.33-.01-3.57-.85-6.93-3.36-9.63-3.28-3.53-7.42-4.5-11.99-3.46-4.57,1.04-7.31,4.14-8.52,8.55-.44,1.59-.57,3.31-.58,4.97-.05,10.41-.03,20.83-.03,31.24,0,2.3-.52,2.82-2.8,2.83-3.16,0-6.31,0-9.47,0-1.69,0-2.36-.67-2.36-2.37,0-10.96-.18-21.92,.05-32.88,.26-12.24,8.84-23.49,21.35-26.19,10.03-2.17,21.16,2.61,27.09,11.61,.25,.38,.51,.76,.79,1.17Z"/>
        <path class="cls-1" d="M354.5,62.65c.81-.35,.88-.82,.37-1.55-.79-1.14-1.57-2.29-2.21-3.52-.37-.7-.59-1.54-.63-2.34-.06-1.16,.71-1.9,1.86-1.91,3.32-.03,6.65-.03,9.97,0,1.16,0,1.76,.68,1.81,1.83,.01,.34,0,.67,0,1.01,0,18.35,0,36.7,0,55.05,0,2.5-.4,2.89-2.94,2.89-2.78,0-5.55,.01-8.33,0-2.11-.01-3.18-1.92-2.1-3.78,.97-1.67,2-3.3,3-4.94-.44-.74-.78-.7-1.34-.1-4.69,5.13-10.46,8.38-17.32,9.57-9.04,1.56-17.26-.59-24.41-6.19-8.79-6.88-12.92-16.14-12.16-27.24,1.03-15.18,12.47-26.68,26.37-28.86,10.69-1.68,19.71,1.67,27.2,9.35,.21,.21,.41,.43,.62,.63,.05,.05,.15,.06,.24,.1Zm-40.88,21.04c0,9.9,8.04,18.02,17.89,18.02,9.86,0,18.06-7.67,18.14-18.05,.08-9.85-8.15-17.95-17.99-17.96-9.96,0-18.04,8.05-18.05,17.99Z"/>
        <path class="cls-1" d="M284.24,106.6c-1.59,1.08-3.14,2.23-4.78,3.23-4.44,2.7-9.33,4.12-14.49,4.16-13.99,.11-25.84-9.37-28.8-22.86-.54-2.43-.72-4.98-.74-7.48-.08-9.2-.03-18.39-.03-27.59,0-2.22,.52-2.74,2.74-2.74,3.07,0,6.14,0,9.22,0,2.04,0,2.69,.67,2.69,2.72,0,9.41-.02,18.81,.01,28.22,.01,3.39,.57,6.69,2.38,9.65,2.96,4.85,7.51,6.64,12.96,6.49,6.87-.19,12.45-4.8,14.02-11.49,.26-1.13,.37-2.32,.38-3.49,.03-9.87,0-19.74,0-29.61,0-1.85,.6-2.48,2.48-2.5,3.2-.02,6.4-.02,9.59,0,1.6,0,2.3,.71,2.3,2.32,0,18.81,.07,37.63-.05,56.44-.05,6.86-2.06,13.14-6.92,18.27-3.56,3.75-7.95,6.14-12.96,7.06-3.73,.69-7.58,.78-11.39,1-1.74,.1-2.51-.82-2.52-2.55,0-2.77,0-5.54,0-8.31,0-2.14,.69-2.84,2.89-2.83,2.73,.01,5.46,.04,8.11-.83,2.54-.83,4.93-1.92,6.87-3.83,1.45-1.42,2.33-3.1,2.13-5.17-.14-1.4,.3-2.5,1.18-3.56,.94-1.12,1.77-2.34,2.62-3.55,.22-.31,.31-.72,.45-1.08-.11-.04-.22-.08-.33-.12Z"/>
        <path class="cls-1" d="M217.11,62.65c.79-.32,.93-.78,.41-1.53-.81-1.17-1.62-2.36-2.28-3.62-.36-.7-.56-1.56-.57-2.35-.02-1.12,.69-1.8,1.83-1.81,3.32-.03,6.65-.03,9.97,0,1.16,0,1.77,.65,1.84,1.8,.02,.33,0,.67,0,1.01,0,18.35,0,36.69,0,55.04,0,2.39-.5,2.9-2.85,2.9-2.86,0-5.72,.01-8.58,0-2.1-.01-3.22-1.95-2.17-3.77,.84-1.45,1.76-2.86,2.6-4.31,.17-.29,.09-.72,.13-1.08-.35,.1-.82,.09-1.02,.32-4.97,5.48-11.17,8.65-18.44,9.77-5.82,.9-11.31-.41-16.44-3.08-9.85-5.12-15.75-13.23-17.13-24.26-2.09-16.7,8.65-31.57,25.16-34.96,8.72-1.79,16.44,.82,23.34,6.14,1.49,1.15,2.79,2.53,4.2,3.81Zm-23.06,39.07c9.92,0,18.05-8.13,18.04-18.03,0-9.84-8.12-17.96-17.97-17.98-9.94-.02-18.09,8.08-18.1,17.97,0,9.91,8.11,18.05,18.02,18.05Z"/>
      </g>
    </g>
  </g>
</svg>