<svg xmlns="http://www.w3.org/2000/svg" viewBox="0 0 293.61 98.2"><defs><style>.cls-1{fill:#fcfbf6;}.cls-2{fill:#17733b;}.cls-3{fill:#e4ce3b;}.cls-4{fill:#bc3332;}</style></defs><g id="Layer_2" data-name="Layer 2"><g id="Layer_1-2" data-name="Layer 1"><path class="cls-1" d="M0,89.34V8.52l2.27,0h270c6.51,0,13,0,19.54,0,1.07,0,1.4-.27,1.35-1.34-.09-2.27,0-4.54-.07-6.81a.42.42,0,0,0,.05-.29c.72,0,.3.57.3.81q0,48.11.05,96.19c0,1-.31,1-1.12,1l-291.26,0c-.4,0-1.3.53-1.14-.63.65,0,1.3.07,2,.07H290.9a11.28,11.28,0,0,1,1.3,0c.79.08,1-.25,1-1a44.91,44.91,0,0,1,0-5.19c.15-1.62-.33-2-2-2q-107.66.08-215.31,0Zm130.3-47.41h0c-4.29,0-8.58,0-12.87,0-1.12,0-1.69.31-1.91,1.44-1.3,6.84-2.56,13.69-4,20.5-.43,2,.23,2.29,2,2.28,7.6-.06,15.21-.2,22.8,0,3.15.1,5.43-.7,7.38-3.19s2.21-2.43,3.78.29a5.37,5.37,0,0,0,5.5,3c4.76-.22,9.54-.13,14.32-.12,1.54,0,2.78-.13,2.77-2.14a19.79,19.79,0,0,1,.46-2.7c.24-1.76.88-2.67,3-2.55,3,.17,6.08-.15,8.66-2.1.38-.28.76-.76,1.28-.44s.31,1,.22,1.48q-.58,3.44-1.24,6.85c-.22,1.11.13,1.59,1.32,1.57,2.55-.05,5.1-.1,7.65,0,1.55.07,2.19-.55,2.2-2,0-.6.06-1.41.53-1.56s.69.7,1,1.1c.91,1,1.35,2.5,3.26,2.48,8.58-.1,17.15-.07,25.73,0,1,0,1.66-.17,1.73-1.37s.57-1.46,1.7-.78c6.3,3.75,12.6,3.76,18.82-.22a1.6,1.6,0,0,1,2,.07c5.5,3.62,11.36,3.74,17.19,1.12,5.09-2.29,6.54-9,2.51-12.16-.81-.62-.69-1.18-.16-1.89,1.14-1.52,2.15-3.13,3.34-4.58.83-1,.38-1.48-.44-2.05A14.56,14.56,0,0,0,265.49,42c-4.79-1-9.42-.88-13.23,2.8-.71.68-1.2.54-1.9-.05-5.09-4.26-15.48-4.67-19.82.65-.18.22-.41.66-.73.42-.16-.11-.08-.61,0-.93a14.21,14.21,0,0,1,.35-1.57c.26-1-.22-1.39-1.17-1.39-5.54,0-11.07,0-16.6,0a1.36,1.36,0,0,0-1.57,1.25q-1.54,7.92-3.11,15.86c-.19,1-.47,2-.71,3-1-.41-1.37-1.44-2.05-2.16-.41-.43-.72-.94-1.1-1.4-.7-.85-.52-1.4.47-1.88a8.24,8.24,0,0,0,3.86-3.33c2.71-4.83-.83-9.71-5.31-10.67C198,41.54,193,42,188.08,42c-.94,0-1.43.57-1.59,1.52-.21,1.28-.51,2.54-.79,3.8-.06.24,0,.62-.4.58-.14,0-.28-.3-.37-.49-1.61-3.71-4.82-4.93-8.5-5.19-7.58-.53-15.18,0-22.77-.31a5.07,5.07,0,0,0-4.74,2.47c-1.1,1.59-1.93,1.52-2.73-.12-1-2-2.53-2.42-4.64-2.33C137.81,42,134.06,41.93,130.32,41.93Zm-96.25-13h0c-3.48,0-6.95,0-10.42,0-1.88,0-2.42.87-1.64,2.53a8.32,8.32,0,0,0,1.79,2.08c.46.48.83,1-.17,1.25-2,.56-2.27,2-.86,3.53,2.18,2.39,5.07,3,8.06,3.34,3.56.46,7.15.16,10.73.25,1,0,1.7.21,1.44,1.48q-2.13,10.55-4.2,21.1c-1.07,5.39-2.1,10.8-3.16,16.19-.22,1.14,0,1.63,1.37,1.63,9,0,17.9,0,26.85,0,1,0,1.74-.25,1.94-1.31.69-3.6,1.47-7.18,2-10.8.24-1.55.65-2.11,2.27-1.62,6.43,1.92,12.63.78,18.46-2.07A35.49,35.49,0,0,0,107.9,43.45c1.9-6.79,1.48-13.55-2-19.79-4-7.11-10.74-10-18.47-10.16-12.32-.29-24.64-.06-37-.09A1.64,1.64,0,0,0,48.57,15c-.8,4.18-1.64,8.36-2.4,12.55-.18,1-.57,1.44-1.69,1.42C41,28.86,37.54,28.91,34.07,28.91ZM130.12,14.3a19.08,19.08,0,0,1-2.93,0c-1.9-.29-3,.57-3.93,2.12q-6.14,10.4-12.37,20.73c-.59,1-.28,1.32.81,1.3,2.66,0,5.32-.09,8,0,1.49.08,2.61-.31,3.19-1.65a3.55,3.55,0,0,1,4.39-2.29,4.76,4.76,0,0,0,1.46,0c1.24-.16,1.78.36,1.89,1.58.14,1.68.88,2.4,2.82,2.38,9.65-.14,19.31-.12,29,0,1.66,0,2.74-.45,3.29-2a2.76,2.76,0,0,1,3.38-2,5.93,5.93,0,0,0,1.63,0c1.56-.18,2.44.36,2.61,2,.14,1.35.89,2,2.43,1.94,2.33-.14,4.67-.11,7,0,1.35,0,1.84-.27,1.45-1.74-1.85-7-3.63-14.11-5.42-21.18a1.4,1.4,0,0,0-1.57-1.26c-2.88.06-5.75.06-8.63,0a1.93,1.93,0,0,0-1.94,1.07c-2.31,4-4.89,7.78-7,11.83-1.24,2.31-2.71,3.19-5.31,3-3.57-.28-3.53-.11-2.77-3.71s1.34-7.1,2-10.64c.23-1.22-.19-1.64-1.45-1.59-2.38.09-4.78.11-7.16,0-1.46-.07-2,.53-2.24,1.88-.3,2-.68,3.92-1.06,5.88-.45,2.38-.93,4.76-1.41,7.14a4.47,4.47,0,0,1-.25.6,4.32,4.32,0,0,1-.29-.62c-.81-3.08-1.62-6.16-2.4-9.24C135.86,14.29,135.87,14.29,130.12,14.3Zm101.82,0c-5.48,0-5.52,0-8.29,4.5-3.61,5.89-7.16,11.82-10.72,17.75-.26.44-.73.91-.44,1.47s.93.4,1.47.4c2.11,0,4.24-.15,6.34,0,2.43.22,4.09-.56,5-2.86.25-.64.62-1.15,1.41-1.13,1.08,0,2.17.09,3.25,0,1.55-.07,2.43.49,2.49,2.15.05,1.4.81,1.83,2.24,1.8,4.88-.11,9.76-.11,14.65,0a1.62,1.62,0,0,0,1.92-1.61c.31-1.92.63-3.83,1-5.75.06-.29.24-.77.41-.79.38-.05.4.43.55.7,1.05,1.95,2.17,3.87,3.12,5.87A2.58,2.58,0,0,0,259,38.49c2.39-.07,4.78-.12,7.16-.05,1.16,0,1.5-.49,1.67-1.48q.82-4.86,1.73-9.71c.71-3.77,1.47-7.52,2.16-11.3.12-.64.52-1.64-.8-1.64h-8.47c-.77,0-1.06.4-1.29,1.15-.55,1.81-.39,3.77-1.15,5.53-.13.28-.17.78-.35.83-.45.12-.61-.38-.77-.69-1-1.81-1.91-3.63-2.79-5.48a2.11,2.11,0,0,0-2.25-1.38c-2.44.11-4.88.1-7.32,0-1.32,0-1.82.46-2,1.69-.68,3.93-1.45,7.85-2.2,11.78-.11.56-.07,1.2-.65,1.57a7.44,7.44,0,0,1-.69-1.42c-.68-2.66-1.35-5.33-1.95-8-1.26-5.57-1.24-5.58-6.86-5.57Zm-45.19,0c-1.14,0-2.28.07-3.42,0-1.53-.13-1.88.48-1.56,1.9,1.57,7,3.08,13.9,4.6,20.86A1.46,1.46,0,0,0,188,38.4c2.54,0,5.09,0,7.64.05a1.38,1.38,0,0,0,1.57-1.05c.43-1.27,1-2.5,1.51-3.75.13-.31.25-.66.63-.63s.42.46.47.76c.19,1,.34,2,.49,3s.65,1.71,1.92,1.66c2.33-.08,4.66,0,7,0a1.75,1.75,0,0,0,1.79-1.07q5.32-10.76,10.72-21.47c.58-1.15.47-1.66-1-1.64-2.71,0-5.42.06-8.14,0-1.21,0-1.67.56-2.06,1.6-.69,1.81-1.57,3.55-2.39,5.3-.13.28-.42.71-.62.7-.47,0-.43-.58-.48-.91-.31-1.69-.59-3.4-.8-5.11-.13-1.11-.61-1.63-1.77-1.6-2.17,0-4.34.07-6.51,0a1.67,1.67,0,0,0-1.8,1.26c-.68,1.76-1.41,3.51-2.13,5.25-.12.28-.35.73-.53.73-.41,0-.33-.48-.39-.77-.21-1.17-.39-2.34-.58-3.51-.48-2.94-.48-2.94-3.43-2.91ZM152.53,70.86a51,51,0,0,0-7.6.66c-.48.08-1.05.1-.91.82s-.35,1.76.48,1.86c1.53.18,1.13,1.11,1.05,1.94a39,39,0,0,1-.71,5.94c-.54,2.2.31,2.23,2,1.92,1.05-.18,1.55-.39,1.4-1.54-.11-.91,0-1.84,0-2.75-.1-1.3.39-1.21,1.24-.64,1.62,1.07,3.27,2.1,4.91,3.16s2.17-.58,2.76-1.34-.63-.8-1-1.09c-.72-.54-1.63-.84-2.41-1.31-.39-.23-.92-.3-1.09-.82.4-.1.81-.22,1.22-.3a16.56,16.56,0,0,0,4.52-1.23,2.69,2.69,0,0,0,1.76-2.5c0-1.26-1.06-1.82-2.13-2.14A17.09,17.09,0,0,0,152.53,70.86Zm39.68,0c-2.11.21-4.53.44-6.94.73-.42,0-1.12-.1-1.19.55s-.21,1.82.28,2c1.4.38.92,1.38,1,2.16a24.77,24.77,0,0,1-.5,5.94c-.08.45-.8,1.51.49,1.33,1-.14,2.5.93,2.88-1,.3-1.47-.49-3.55.51-4.31s3-.37,4.56-.48a5.3,5.3,0,0,0,.8-.1c1.75-.39,3.53-.69,4.92-1.94s1.35-2.76-.45-3.71S194.59,70.92,192.21,70.82Zm-76.86,6a26.38,26.38,0,0,1-.54,4.56c-.54,1.91,0,2.36,1.87,2.18,1-.09,1.45-.31,1.44-1.35s.18-1.84.12-2.74c-.08-1.18.26-1.57,1.52-1.55a18.93,18.93,0,0,0,7.48-1.24c1.35-.56,2.69-1.32,2.6-3s-1.64-2-2.94-2.33c-4.1-1.16-8.18-.28-12.24.29-1.46.2-.56,2.28-.49,2.29C115.92,74.4,115,75.81,115.35,76.83Zm54.46-5.91c-.21.2-1-.57-1.41.31a112.06,112.06,0,0,1-6.14,11.36c-.15.25-.45.52.12.71,1.43.47,3.9-.47,4.44-1.81a1.15,1.15,0,0,1,1.06-.82c.91-.1,1.83-.15,2.74-.29s.94.45,1.25,1-.1,1.85.85,1.14,3.22-.47,2.17-2.69A31.71,31.71,0,0,1,172,72.25C171.82,71.07,171.36,70.52,169.81,70.92Zm43.28,6.92H213c-.09,1.56-.19,3.12-.27,4.69,0,.53-.12,1.18.77,1,4.07-.87,8.24-1.46,11.83-3.76,2.4-1.53,2.22-3.54-.36-4.7-3.49-1.56-7.26-2.1-11-2.8-.9-.17-.87.31-.87.88Zm49.51-6.91c-.18.12-1-.52-1.33.39-1.61,3.9-3.92,7.43-6,11.09-.14.25-.51.49-.12.81.66.54,4.07-.31,4.33-1.18.72-2.39,2.8-1.22,4.23-1.6,1.22-.33.82,1.09,1.21,1.68.12.17.31.52.32.52.89-.48,1.78-1,2.63-1.5.63-.4.12-.87-.06-1.26A32.55,32.55,0,0,1,265,72.35C264.73,71.05,264.25,70.52,262.6,70.93ZM242,80.83c-.25-.56-.41-1-.6-1.34a37.91,37.91,0,0,1-2.88-7.69c-.1-.44,0-1.12-.71-1-.94.15-2.22-.61-2.77.57-1.79,3.87-4,7.5-6.09,11.2-.11.19-.48.35-.13.65s4-.21,4.15-.67c.52-2.44,2.52-1.8,4.11-2.11.9-.18,1.23.13,1.46,1,.1.41-.18,1.53.75,1.18A13.73,13.73,0,0,0,242,80.83Zm-43.21,2.28c2.07.23,3.09-.18,3.91-1.84.7-1.39,2.67-.59,4-.85.77-.15.56.87.81,1.35.16.31.14,1,.48.88a11.68,11.68,0,0,0,2.64-1.54c.58-.44,0-1-.22-1.42A36.18,36.18,0,0,1,207.62,72c-.12-.59-.11-1.31-1-1.16s-2.09-.67-2.7.72a100.19,100.19,0,0,1-5.55,10.24c-.24.41-.69,1-.56,1.25C198.13,83.55,198.81,83.11,198.83,83.11Zm-56.45-2.44c.25-1.37-.3-1.64-1.59-1.28a41.22,41.22,0,0,1-4.29.86c-.51.1-1.13.31-1.2-.57-.05-.7,0-1.31.9-1.43a32.09,32.09,0,0,1,3.37-.46,1.87,1.87,0,0,0,1.87-1.24c.1-.23.15-.48.23-.72a2.93,2.93,0,0,0-.77-.06c-1.38.26-2.75.62-4.14.83-.47.07-1.38.71-1.42-.55,0-.85-.08-1.64,1.17-1.66,1.46,0,2.92-.27,4.38-.22,1.67,0,1.56-1.19,1.47-2.06-.11-1.06-1-.32-1.54-.25-2.52.35-5,.86-7.54,1.16-1.09.12-1.51.4-1.39,1.56a22.49,22.49,0,0,1-.53,7.4c-.26,1.11.06,1.28,1.11,1.12,2.94-.44,5.9-.83,8.86-1.13C142.25,81.87,142.62,81.6,142.38,80.67ZM244,75.17a49.65,49.65,0,0,1-.61,6.76c0,.35-.59,1.17.55,1,2.74-.31,5.46-.7,8.22-.89,1.29-.09,1.11-1.67,1.12-2.5s-.92-.06-1.41,0c-1.23.13-2.45.37-3.67.61s-1.74-.16-1.61-1.49A21.53,21.53,0,0,1,248.2,72c.35-.77.26-1-.69-.87-3.46.47-3.46.43-3.5,3.89A.92.92,0,0,1,244,75.17Z"/><path class="cls-2" d="M293.14.37c0,2.27,0,4.54.07,6.81.05,1.07-.28,1.35-1.35,1.34-6.51,0-13,0-19.54,0H2.29L0,8.52V.4c.6,0,1.19,0,1.79,0H293.14Z"/><path class="cls-2" d="M0,89.34H75.91q107.66,0,215.31,0c1.67,0,2.15.41,2,2a44.91,44.91,0,0,0,0,5.19c0,.76-.21,1.09-1,1a11.28,11.28,0,0,0-1.3,0H2c-.65,0-1.3,0-1.95-.07Z"/><path class="cls-3" d="M293.14.37H1.81C1.21.36.62.39,0,.4.31-.27.9.1,1.32.1c8.2,0,16.4,0,24.6,0H293.19A.42.42,0,0,1,293.14.37Z"/><path class="cls-3" d="M130.32,41.93c3.74,0,7.49.11,11.23,0,2.11-.09,3.68.35,4.64,2.33.8,1.64,1.63,1.71,2.73.12a5.07,5.07,0,0,1,4.74-2.47c7.59.34,15.19-.22,22.77.31,3.68.26,6.89,1.48,8.5,5.19.09.19.23.48.37.49.37,0,.34-.34.4-.58.28-1.26.58-2.52.79-3.8.16-.95.65-1.53,1.59-1.52,4.93,0,9.88-.41,14.76.63,4.48,1,8,5.84,5.31,10.67a8.24,8.24,0,0,1-3.86,3.33c-1,.48-1.17,1-.47,1.88.38.46.69,1,1.1,1.4.68.72,1,1.75,2.05,2.16.24-1,.52-2,.71-3q1.57-7.94,3.11-15.86a1.36,1.36,0,0,1,1.57-1.25c5.53,0,11.06,0,16.6,0,.95,0,1.43.37,1.17,1.39a14.21,14.21,0,0,0-.35,1.57c-.05.32-.13.82,0,.93.32.24.55-.2.73-.42,4.34-5.32,14.73-4.91,19.82-.65.7.59,1.19.73,1.9.05,3.81-3.68,8.44-3.79,13.23-2.8a14.56,14.56,0,0,1,5.35,2.25c.82.57,1.27,1,.44,2.05-1.19,1.45-2.2,3.06-3.34,4.58-.53.71-.65,1.27.16,1.89,4,3.11,2.58,9.87-2.51,12.16-5.83,2.62-11.69,2.5-17.19-1.12a1.6,1.6,0,0,0-2-.07c-6.22,4-12.52,4-18.82.22-1.13-.68-1.64-.38-1.7.78s-.73,1.37-1.73,1.37c-8.58,0-17.15,0-25.73,0-1.91,0-2.35-1.43-3.26-2.48-.34-.4-.57-1.24-1-1.1s-.53,1-.53,1.56c0,1.46-.65,2.08-2.2,2-2.55-.11-5.1-.06-7.65,0-1.19,0-1.54-.46-1.32-1.57q.66-3.42,1.24-6.85c.09-.5.36-1.12-.22-1.48s-.9.16-1.28.44c-2.58,2-5.63,2.27-8.66,2.1-2.12-.12-2.76.79-3,2.55A19.79,19.79,0,0,0,170,64c0,2-1.23,2.14-2.77,2.14-4.78,0-9.56-.1-14.32.12a5.37,5.37,0,0,1-5.5-3c-1.57-2.72-1.82-2.78-3.78-.29s-4.23,3.29-7.38,3.19c-7.59-.23-15.2-.09-22.8,0-1.72,0-2.38-.29-2-2.28,1.46-6.81,2.72-13.66,4-20.5.22-1.13.79-1.45,1.91-1.44,4.29.06,8.58,0,12.87,0Zm64,1.66c-1.58,0-3.15,0-4.72,0a1,1,0,0,0-1.22,1q-1.84,9.38-3.72,18.73c-.16.83.08,1.2,1,1.17,1.51,0,3-.06,4.55,0,.95,0,1.33-.32,1.48-1.24.31-1.81.72-3.6,1.09-5.39.07-.3.12-.79.28-.83.41-.11.44.38.6.63,1.26,1.95,2.53,3.9,3.74,5.88a1.6,1.6,0,0,0,1.53,1c1.95-.05,3.9,0,5.86,0,.29,0,.75.16.83-.22s-.22-.56-.41-.81q-1.82-2.38-3.66-4.74c-1.68-2.15-1.69-2.15.88-3.09,3.1-1.14,4.66-3.36,4.48-6.37-.16-2.52-2-4.35-5.13-5.1A32,32,0,0,0,194.35,43.59ZM154,64.41c1.49,0,2.47,0,3.44,0,.35,0,.88.22,1-.21.07-.26-.23-.68-.44-1-2.14-2.86-4.26-5.73-6.45-8.54a1.31,1.31,0,0,1,.16-2.13c2.63-2.49,5.19-5.06,7.76-7.62.32-.32,1-.58.72-1.11s-.89-.15-1.35-.23c-4.72-.84-8.43.65-11,4.72-.49.76-1,.75-1.33-.11-1.64-4.2-4.85-5.31-9-4.62-.16,0-.33,0-.49,0-.39.08-1-.23-1.15.25-.08.23.28.65.5.95,1.8,2.49,3.59,5,5.45,7.46.53.7.54,1.1-.12,1.73-2.76,2.59-5.46,5.25-8.16,7.9a9.51,9.51,0,0,0-2.2,2.32c1,.38,2.13,0,3.16.22,3.76.66,6.55-.71,8.69-3.79a25.35,25.35,0,0,1,2.88-3,36.27,36.27,0,0,1,2.36,3.45C149.71,63.61,151.35,65.35,154,64.41Zm10.28,0c3.48,0,3.48,0,4.25-3.4a17.49,17.49,0,0,0,.49-2.37c.08-1.07.49-1.48,1.62-1.45a38.6,38.6,0,0,0,6.17-.23c3.82-.54,6.53-3.32,6.56-6.85,0-3.36-2.35-5.69-6.41-6.26-3.68-.51-7.37-.13-11.05-.27-.81,0-1,.47-1.09,1.11-1.09,5.51-2.21,11-3.28,16.51C160.91,64.4,160.93,64.4,164.28,64.41Zm72.39.57a13.12,13.12,0,0,0,8.12-2.34c3.53-2.68,3.29-7.45-.52-9.64-1.45-.84-3.05-1.4-4.52-2.2-.65-.35-1.73-.63-1.42-1.69s1.26-1.27,2.22-1.33a7.5,7.5,0,0,1,4,1.27c.46.25,1,.65,1.37-.07.7-1.23,2-2.07,2.22-3.59,0-.12-.31-.29-.49-.39-4.1-2.23-8.35-2.69-12.64-.74a6.13,6.13,0,0,0-3.92,5.85c0,2.58,1.89,3.71,3.92,4.67,1.32.62,2.66,1.22,4,1.9.66.36,1.34.88,1.08,1.79a1.93,1.93,0,0,1-1.69,1.33,7.82,7.82,0,0,1-4.59-.68c-1-.44-1.86-1.86-2.87-1.47s-1.62,1.67-2.42,2.55c-.14.16-.28.33-.44.48-.68.6-.46,1,.19,1.51A13.33,13.33,0,0,0,236.67,65Zm24.65-21.84a10.21,10.21,0,0,0-5.48,1.21c-2.31,1.25-3.76,3-3.73,5.81,0,2.56,1.89,3.59,3.8,4.57,1.4.71,2.85,1.32,4.25,2a1.65,1.65,0,0,1,1,1.58,1.7,1.7,0,0,1-1.46,1.36,7.78,7.78,0,0,1-5.06-.65c-1-.42-1.72-1.81-2.7-1.43s-1.58,1.57-2.35,2.41c-.22.23-.41.49-.64.73-.49.52-.31.87.19,1.32C253.4,66,262.43,66,266.56,62a5.56,5.56,0,0,0-.65-8.57,29,29,0,0,0-4.49-2.25c-.92-.43-2.39-.75-2-2.11s1.81-1.35,3-1.2a5.44,5.44,0,0,1,1.24.34c3.05,1.19,3.05,1.2,5-1.58a1.31,1.31,0,0,1,.19-.27c.63-.58.4-1-.26-1.34A13.67,13.67,0,0,0,261.32,43.14ZM121.19,64.41h4.07c3.51,0,3.51,0,4-3.4l0-.16c.22-.78-.1-1.08-.89-1.07-1.74,0-3.47.07-5.21,0-.59,0-1.84.53-1.58-.8.2-1-.27-2.74,1.78-2.67,1.68.05,3.36,0,5,0,.62,0,1.12,0,1.39-.76,1.19-3.25.85-3.81-2.51-3.81h-2c-2.46,0-2.42,0-1.9-2.33.18-.84.6-1,1.35-1,1.19,0,2.38,0,3.57,0,3.64,0,3.62,0,4.15-3.52.15-1,0-1.35-1.13-1.34q-6.25.08-12.52,0c-1,0-1.34.31-1.52,1.21q-1.78,9.15-3.64,18.27c-.23,1.12.21,1.41,1.27,1.38C117.07,64.37,119.13,64.41,121.19,64.41Zm95.05,0h0c1.52,0,3,0,4.56,0,3.68-.08,2.79.65,3.65-3.12.24-1.09,0-1.59-1.23-1.52a44.13,44.13,0,0,1-4.88,0c-.54,0-1.76.52-1.52-.66.2-1-.41-2.76,1.64-2.75,1.68,0,3.37-.06,5,0,1,0,1.44-.21,1.63-1.27.62-3.32.67-3.31-2.7-3.31h-1.95c-2.3,0-2.27,0-1.85-2.19.16-.84.5-1.2,1.39-1.16,1.3.07,2.6,0,3.91,0,3.08,0,3,0,3.71-3.08.28-1.29.09-1.84-1.43-1.8q-5.86.15-11.72,0c-1.3,0-1.79.39-2,1.61q-1.71,9-3.56,18c-.22,1.08.14,1.31,1.13,1.29C212.11,64.37,214.18,64.4,216.24,64.4Zm-53.64-19v-.51a3.07,3.07,0,0,0-.67.36c-2.69,2.58-5.36,5.19-8.05,7.78-.58.56-.32,1.09.06,1.58,1.52,2,3.07,4,4.61,6.06a8.22,8.22,0,0,0,.66.66,4.92,4.92,0,0,0,.37-.89C160.59,55.45,161.58,50.48,162.6,45.38ZM131.74,59c.09.4-.33.92.27,1.14s.78-.29,1.08-.58c2-1.94,4-3.9,6.06-5.84.61-.58.45-1.13,0-1.71-.89-1.23-1.72-2.49-2.67-3.67-.55-.67-.9-2-1.89-1.73s-.59,1.48-.76,2.3a1,1,0,0,1-.09.3C132.09,52.29,132,55.67,131.74,59Zm119.94-4.76c-2.08-2.4-1.83-5-.91-7.79,0-.11.06-.37-.2-.31a.86.86,0,0,0-.36.3,35.69,35.69,0,0,0-3.52,4.85.87.87,0,0,0,.19,1.26,7.73,7.73,0,0,1,2.4,3.59c.11.33.16.88.72.5A6.37,6.37,0,0,0,251.68,54.25ZM231,54.86a6.61,6.61,0,0,1,1.12.85,10.8,10.8,0,0,0,2.6,1.92,2.73,2.73,0,0,0,2.46.43c.06,0,.09-.1.14-.15a4.7,4.7,0,0,0-2.1-1.17,2.74,2.74,0,0,1-.46-.15c-2.61-1.1-5-2.43-5.64-5.52-.07-.3-.1-.69-.57-.64-.31,0-.41.28-.51.55-.79,2.25-.43,4.79-1.7,6.93a4,4,0,0,0,.39.25c1.17.54,1.48-.56,2-1.11C229.44,56.34,229.85,55.33,231,54.86Z"/><path class="cls-3" d="M34.07,28.91c3.47,0,6.94-.05,10.41,0,1.12,0,1.51-.38,1.69-1.42.76-4.19,1.6-8.37,2.4-12.55a1.64,1.64,0,0,1,1.86-1.56c12.32,0,24.64-.2,37,.09,7.73.18,14.47,3.05,18.47,10.16,3.52,6.24,3.94,13,2,19.79A35.49,35.49,0,0,1,88.54,66.56c-5.83,2.85-12,4-18.46,2.07-1.62-.49-2,.07-2.27,1.62-.54,3.62-1.32,7.2-2,10.8-.2,1.06-1,1.32-1.94,1.31-9,0-17.9-.08-26.85,0-1.33,0-1.59-.49-1.37-1.63,1.06-5.39,2.09-10.8,3.16-16.19q2.07-10.56,4.2-21.1c.26-1.27-.43-1.45-1.44-1.48-3.58-.09-7.17.21-10.73-.25-3-.38-5.88-.95-8.06-3.34-1.41-1.54-1.1-3,.86-3.53,1-.28.63-.77.17-1.25A8.32,8.32,0,0,1,22,31.46c-.78-1.66-.24-2.52,1.64-2.53,3.47,0,6.94,0,10.42,0ZM70.7,17.17c-5.75,0-11.5,0-17.26,0-1.44,0-1.95.42-2.17,1.82-.43,2.83-1,5.64-1.67,8.42C49.28,28.75,49.75,29,51,29,56.24,29,61.45,29,66.66,29a6,6,0,0,0,3.34-1,13.37,13.37,0,1,1,.2,22.85,4.86,4.86,0,0,0-2.61-.68q-6.68,0-13.35,0c-2.63,0-4.74-1.17-5.17-3.12-.33-1.46-1.24-1.66-2.33-1.69-1.29,0-.93,1.17-1.06,1.82-2,9.95-4,19.92-6.06,29.86-.27,1.29-.06,1.58,1.23,1.57,6.67,0,13.35-.08,20,0,1.68,0,2.11-.63,2.37-2C64,72.42,65,68.2,65.78,64c.19-1.06.36-1.21,1.36-.68A21,21,0,0,0,81.63,65.4c13.6-2.8,23.46-15.87,23.8-28,.33-11.55-7-20.26-18.77-20.2C81.34,17.19,76,17.17,70.7,17.17ZM89.27,39.45A12.29,12.29,0,1,0,77.09,51.61,12.12,12.12,0,0,0,89.27,39.45ZM43.41,36.2c-5.58,0-11.16,0-16.74,0-1.06,0-2.9-.61-3,.45-.17,1.47,1.64,2.13,2.95,2.57a28,28,0,0,0,8.63,1.28c8.78,0,17.57,0,26.34.09,2.63,0,1.75-1.74,1.95-3,.25-1.52-.87-1.45-1.88-1.45Zm4.24-1.6c4.48,0,9.2,0,13.92,0,1.81,0,3.21-.3,3.89-2.29.57-1.65.55-1.88-1.21-1.88-5.74,0-11.47.06-17.2,0-7.2-.1-14.39.26-21.59-.13-.52,0-1.15-.07-1.39.57a1.23,1.23,0,0,0,.67,1.5,10.51,10.51,0,0,0,4.79,1.86C35.48,34.79,41.45,34.32,47.65,34.6Zm6.45,7.26v0H46.3c-.49,0-1.08-.07-1.22.52s.39,1,.88,1.2a9.57,9.57,0,0,0,3.74,1c4.33,0,8.67,0,13,0,1.35,0,1.41-.75,1-1.71a1.7,1.7,0,0,0-1.81-1.06C59.3,41.89,56.7,41.86,54.1,41.86ZM59.52,49v0h6c.41,0,.93.12,1.12-.4s-.15-.72-.38-1a2.78,2.78,0,0,0-2.1-1.36q-6.4,0-12.81,0c-1,0-1.11.6-.62,1.29a3.39,3.39,0,0,0,3,1.4Z"/><path class="cls-3" d="M130.12,14.3c5.75,0,5.74,0,7.15,5.6.78,3.08,1.59,6.16,2.4,9.24a4.32,4.32,0,0,0,.29.62,4.47,4.47,0,0,0,.25-.6c.48-2.38,1-4.76,1.41-7.14.38-2,.76-3.92,1.06-5.88.2-1.35.78-2,2.24-1.88,2.38.11,4.78.09,7.16,0,1.26,0,1.68.37,1.45,1.59-.69,3.54-1.3,7.11-2,10.64s-.8,3.43,2.77,3.71c2.6.2,4.07-.68,5.31-3,2.15-4.05,4.73-7.86,7-11.83a1.93,1.93,0,0,1,1.94-1.07c2.88,0,5.75,0,8.63,0a1.4,1.4,0,0,1,1.57,1.26c1.79,7.07,3.57,14.13,5.42,21.18.39,1.47-.1,1.78-1.45,1.74-2.33-.07-4.67-.1-7,0-1.54.09-2.29-.59-2.43-1.94-.17-1.68-1.05-2.22-2.61-2a5.93,5.93,0,0,1-1.63,0,2.76,2.76,0,0,0-3.38,2c-.55,1.5-1.63,2-3.29,2-9.66-.09-19.32-.11-29,0-1.94,0-2.68-.7-2.82-2.38-.11-1.22-.65-1.74-1.89-1.58a4.76,4.76,0,0,1-1.46,0,3.55,3.55,0,0,0-4.39,2.29c-.58,1.34-1.7,1.73-3.19,1.65-2.65-.13-5.31-.07-8,0-1.09,0-1.4-.31-.81-1.3q6.21-10.35,12.37-20.73c.92-1.55,2-2.41,3.93-2.12A19.08,19.08,0,0,0,130.12,14.3ZM136,36.76h0a12.65,12.65,0,0,1,1.63,0c1.47.17,2-.17,1.53-1.82C137.5,29,136,23.06,134.54,17.09A1.31,1.31,0,0,0,133,15.92c-1.84.07-3.69.06-5.53,0A2.37,2.37,0,0,0,125,17.27c-3,5.24-6.19,10.4-9.27,15.6-.73,1.23-1.74,2.31-2,3.77a34.3,34.3,0,0,1,4.19.15,3.51,3.51,0,0,0,4.26-2.47,2.22,2.22,0,0,1,2.52-1.51,33.43,33.43,0,0,0,5.2,0c1.48-.11,2.29.4,2.36,1.86.1,1.83,1.08,2.39,2.77,2.1A5.23,5.23,0,0,1,136,36.76Zm36.76-20.83a13.36,13.36,0,0,1-1.79,0c-1.77-.25-2.79.45-3.69,2-2.91,5.13-6,10.12-9.05,15.18-.65,1.09-2.13,2.37-1.62,3.28s2.39.13,3.64.35c2.36.4,3.91-.43,4.74-2.72a1.62,1.62,0,0,1,1.69-1.22c2.22.08,4.45,0,6.67,0a1.16,1.16,0,0,1,1.32.88c1,3.06,1.06,3.05,4.28,3.05.65,0,1.3,0,2,0,1,.06,1.29-.2,1-1.3-1.39-5.16-2.68-10.35-4-15.53C176.87,15.93,176.89,15.93,172.72,15.93ZM148.38,36.75h3.9c3.69,0,3.64,0,4.22-3.74.15-1,0-1.25-1-1.23-1.78,0-3.58,0-5.36,0-1.24.06-1.7-.13-1.39-1.59.94-4.32,1.64-8.68,2.51-13,.19-.92.11-1.3-.92-1.27-1.51.05-3,0-4.55,0-.69,0-1.07.16-1.21.94q-1.72,9.39-3.54,18.75c-.17.88.13,1.15,1,1.14C144.15,36.74,146.27,36.76,148.38,36.75Z"/><path class="cls-3" d="M231.94,14.3h.17c5.62,0,5.6,0,6.86,5.57.6,2.69,1.27,5.36,1.95,8a7.44,7.44,0,0,0,.69,1.42c.58-.37.54-1,.65-1.57.75-3.93,1.52-7.85,2.2-11.78.21-1.23.71-1.74,2-1.69,2.44.1,4.88.11,7.32,0a2.11,2.11,0,0,1,2.25,1.38c.88,1.85,1.84,3.67,2.79,5.48.16.31.32.81.77.69.18-.05.22-.55.35-.83.76-1.76.6-3.72,1.15-5.53.23-.75.52-1.15,1.29-1.15h8.47c1.32,0,.92,1,.8,1.64-.69,3.78-1.45,7.53-2.16,11.3q-.9,4.84-1.73,9.71c-.17,1-.51,1.51-1.67,1.48-2.38-.07-4.77,0-7.16.05a2.58,2.58,0,0,1-2.68-1.64c-.95-2-2.07-3.92-3.12-5.87-.15-.27-.17-.75-.55-.7-.17,0-.35.5-.41.79-.34,1.92-.66,3.83-1,5.75a1.62,1.62,0,0,1-1.92,1.61c-4.89-.08-9.77-.08-14.65,0-1.43,0-2.19-.4-2.24-1.8-.06-1.66-.94-2.22-2.49-2.15-1.08.05-2.17,0-3.25,0-.79,0-1.16.49-1.41,1.13-.88,2.3-2.54,3.08-5,2.86-2.1-.19-4.23-.05-6.34,0-.54,0-1.17.18-1.47-.4s.18-1,.44-1.47c3.56-5.93,7.11-11.86,10.72-17.75C226.42,14.28,226.46,14.3,231.94,14.3Zm18.91,1.63a21.52,21.52,0,0,1-2.47,0c-1.46-.22-2,.31-2.3,1.82-.91,5.32-2,10.61-3,15.91-.6,3.12-.59,3.12,2.68,3.11a11.52,11.52,0,0,1,1.95,0c1.19.17,1.62-.38,1.79-1.48.54-3.4,1.16-6.8,1.75-10.2.07-.37.19-.73.28-1.09.43.13.45.56.61.86a72.46,72.46,0,0,1,3.92,7.64c1.29,3.39,3.32,5,7,4.26a4.36,4.36,0,0,1,1.3,0c.94.09,1.42-.17,1.61-1.24,1.1-6.16,2.28-12.31,3.49-18.45.17-.87,0-1.18-.88-1.15-1.52,0-3,0-4.55,0-.81,0-1.13.28-1.26,1.09-.58,3.73-1.61,7.39-1.92,11.16,0,.23.15.59-.24.64-.09,0-.23-.31-.32-.5-1.5-3-3.13-5.92-4.44-9C254.77,16.76,253.46,15,250.85,15.93Zm-13.2,20.83a12.5,12.5,0,0,1,1.62,0c1.54.19,2-.23,1.5-1.84-1.16-4.09-2.12-8.25-3.21-12.37-.59-2.2-.35-5.3-2.1-6.34s-4.52-.24-6.85-.28a1.66,1.66,0,0,0-1.68.94C223.5,22.7,220,28.47,216.56,34.27c-.43.73-1.44,1.57-1,2.21s1.69.19,2.58.3c2.78.34,5.15,0,6.12-3.17.23-.76.92-.78,1.61-.78,1.95,0,3.91.11,5.85,0,1.39-.1,2.06.42,2.15,1.71.12,1.82,1,2.59,2.84,2.25A5.24,5.24,0,0,1,237.65,36.76Z"/><path class="cls-3" d="M186.75,14.3h2.44c2.95,0,2.95,0,3.43,2.91.19,1.17.37,2.34.58,3.51.06.29,0,.77.39.77.18,0,.41-.45.53-.73.72-1.74,1.45-3.49,2.13-5.25a1.67,1.67,0,0,1,1.8-1.26c2.17.06,4.34,0,6.51,0,1.16,0,1.64.49,1.77,1.6.21,1.71.49,3.42.8,5.11.05.33,0,.88.48.91.2,0,.49-.42.62-.7.82-1.75,1.7-3.49,2.39-5.3.39-1,.85-1.62,2.06-1.6,2.72.07,5.43.05,8.14,0,1.42,0,1.53.49,1,1.64q-5.4,10.71-10.72,21.47a1.75,1.75,0,0,1-1.79,1.07c-2.34,0-4.67-.06-7,0-1.27.05-1.76-.55-1.92-1.66s-.3-2-.49-3c0-.3-.06-.72-.47-.76s-.5.32-.63.63c-.51,1.25-1.08,2.48-1.51,3.75a1.38,1.38,0,0,1-1.57,1.05c-2.55-.05-5.1-.08-7.64-.05A1.46,1.46,0,0,1,186.37,37c-1.52-7-3-13.91-4.6-20.86-.32-1.42,0-2,1.56-1.9C184.47,14.37,185.61,14.3,186.75,14.3Zm19,22.47c.82,0,1.63,0,2.44,0a1.35,1.35,0,0,0,1.42-.83Q214.3,26.52,219,17.1c.42-.85.25-1.18-.71-1.17-1.57,0-3.15,0-4.72,0a1.3,1.3,0,0,0-1.33.94Q209.6,22.95,206.87,29c-.09.21.06.61-.34.56-.08,0-.13-.45-.16-.7-.44-2.78-.86-5.55-1.32-8.33-.78-4.67-.8-4.63-5.53-4.63a1.71,1.71,0,0,0-1.88,1.3c-1.46,3.89-3,7.76-4.54,11.63a4.86,4.86,0,0,1-.39.65c-.06-.23-.14-.46-.18-.7q-.66-3.91-1.31-7.83c-.84-5.05-.84-5-5.89-5.05-1.23,0-1.58.23-1.29,1.52,1.27,5.53,2.45,11.08,3.65,16.62.58,2.7.56,2.71,3.4,2.71,1,0,2,0,2.93,0a1.63,1.63,0,0,0,1.91-1.27c1.22-3.29,2.54-6.55,3.81-9.82.12-.29.1-.65.5-.75l.15.76c.47,2.61.91,5.21,1.41,7.81C202.41,36.76,202.43,36.75,205.76,36.77Z"/><path class="cls-4" d="M152.53,70.86a17.09,17.09,0,0,1,5.47.64c1.07.32,2.09.88,2.13,2.14a2.69,2.69,0,0,1-1.76,2.5,16.56,16.56,0,0,1-4.52,1.23c-.41.08-.82.2-1.22.3.17.52.7.59,1.09.82.78.47,1.69.77,2.41,1.31.4.29,1.74.19,1,1.09s-1.14,2.38-2.76,1.34-3.29-2.09-4.91-3.16c-.85-.57-1.34-.66-1.24.64.08.91-.07,1.84,0,2.75.15,1.15-.35,1.36-1.4,1.54-1.74.31-2.59.28-2-1.92a39,39,0,0,0,.71-5.94c.08-.83.48-1.76-1.05-1.94-.83-.1-.35-1.21-.48-1.86s.43-.74.91-.82A51,51,0,0,1,152.53,70.86Zm-2.34,4.52c1.27-.2,2.66-.39,4-.63.51-.08,1.35-.19,1.28-.7s-.92-.54-1.49-.52c-1.35,0-2.69.11-4,.24-.56,0-1.41-.2-1.27.93S149.57,75.23,150.19,75.38Z"/><path class="cls-4" d="M192.21,70.82c2.38.1,4.44.16,6.32,1.15s2,2.34.45,3.71-3.17,1.55-4.92,1.94a5.3,5.3,0,0,1-.8.1c-1.56.11-3.52-.31-4.56.48s-.21,2.84-.51,4.31c-.38,1.91-1.9.84-2.88,1-1.29.18-.57-.88-.49-1.33a24.77,24.77,0,0,0,.5-5.94c0-.78.44-1.78-1-2.16-.49-.14-.36-1.28-.28-2s.77-.5,1.19-.55C187.68,71.26,190.1,71,192.21,70.82Zm-1.12,4.63A11.22,11.22,0,0,0,194.6,75c.4-.15.87-.31.79-.86s-.57-.52-.88-.53a21.76,21.76,0,0,0-3.87,0c-.75.09-2.17-.25-2,1.21s1.38.45,2.1.65A1.69,1.69,0,0,0,191.09,75.45Z"/><path class="cls-4" d="M115.35,76.83c-.37-1,.57-2.43-1.18-2.85-.07,0-1-2.09.49-2.29,4.06-.57,8.14-1.45,12.24-.29,1.3.36,2.84.69,2.94,2.33s-1.25,2.4-2.6,3a18.93,18.93,0,0,1-7.48,1.24c-1.26,0-1.6.37-1.52,1.55.06.9-.14,1.83-.12,2.74s-.43,1.26-1.44,1.35c-1.86.18-2.41-.27-1.87-2.18A26.38,26.38,0,0,0,115.35,76.83Zm5.29-1.41a13.51,13.51,0,0,0,3.83-.38c.44-.13.87-.35.87-.83s-.54-.62-1-.64a23.37,23.37,0,0,0-3.55,0c-.85.11-2.41-.35-2.22,1.25C118.76,76.15,120.07,75.1,120.64,75.42Z"/><path class="cls-4" d="M169.81,70.92c1.55-.4,2,.15,2.23,1.33a31.71,31.71,0,0,0,2.85,7.54c1.05,2.22-1.33,2.06-2.17,2.69s-.59-.71-.85-1.14-.44-1.08-1.25-1-1.83.19-2.74.29a1.15,1.15,0,0,0-1.06.82c-.54,1.34-3,2.28-4.44,1.81-.57-.19-.27-.46-.12-.71a112.06,112.06,0,0,0,6.14-11.36C168.77,70.35,169.6,71.12,169.81,70.92Zm-.38,7.53c.36-.27,1.29.2,1.15-.67a8.53,8.53,0,0,0-.91-2,3.89,3.89,0,0,0-1.07,2C168.37,78.54,169,78.36,169.43,78.45Z"/><path class="cls-4" d="M213.09,77.84v-4.7c0-.57,0-1,.87-.88,3.72.7,7.49,1.24,11,2.8,2.58,1.16,2.76,3.17.36,4.7-3.59,2.3-7.76,2.89-11.83,3.76-.89.19-.8-.46-.77-1,.08-1.57.18-3.13.27-4.69Zm3.17-.08c0,.65,0,1.3,0,1.94,0,.43,0,.76.57.69a12.94,12.94,0,0,0,6.12-1.87c1.2-.83,1.09-1.77-.21-2.45a9.94,9.94,0,0,0-3.25-.93C216.35,74.66,216.35,74.67,216.26,77.76Z"/><path class="cls-4" d="M262.6,70.93c1.65-.41,2.13.12,2.37,1.42a32.55,32.55,0,0,0,2.86,7.53c.18.39.69.86.06,1.26-.85.55-1.74,1-2.63,1.5,0,0-.2-.35-.32-.52-.39-.59,0-2-1.21-1.68-1.43.38-3.51-.79-4.23,1.6-.26.87-3.67,1.72-4.33,1.18-.39-.32,0-.56.12-.81,2.06-3.66,4.37-7.19,6-11.09C261.64,70.41,262.42,71.05,262.6,70.93Zm-.46,7.54c.44-.22,1.39.18,1.33-.69a6.48,6.48,0,0,0-.91-2A5.57,5.57,0,0,0,261.44,78C261.14,78.64,261.8,78.39,262.14,78.47Z"/><path class="cls-4" d="M242,80.83a13.73,13.73,0,0,1-2.71,1.77c-.93.35-.65-.77-.75-1.18-.23-.85-.56-1.16-1.46-1-1.59.31-3.59-.33-4.11,2.11-.1.46-3.79,1-4.15.67s0-.46.13-.65c2.09-3.7,4.3-7.33,6.09-11.2.55-1.18,1.83-.42,2.77-.57.75-.12.61.56.71,1a37.91,37.91,0,0,0,2.88,7.69C241.63,79.87,241.79,80.27,242,80.83Zm-5.86-2.37c.27-.3,1.25.23,1.07-.76a7.26,7.26,0,0,0-.89-1.87,3.56,3.56,0,0,0-1.11,2.22C235.1,78.72,235.74,78.35,236.18,78.46Z"/><path class="cls-4" d="M198.83,83.11s-.7.44-1-.08c-.13-.24.32-.84.56-1.25A100.19,100.19,0,0,0,204,71.54c.61-1.39,1.79-.55,2.7-.72s.85.57,1,1.16a36.18,36.18,0,0,0,2.88,7.71c.21.45.8,1,.22,1.42a11.68,11.68,0,0,1-2.64,1.54c-.34.14-.32-.57-.48-.88-.25-.48,0-1.5-.81-1.35-1.38.26-3.35-.54-4,.85C201.92,82.93,200.9,83.34,198.83,83.11Zm6-4.65c.47-.22,1.49.24,1.31-.84a6.8,6.8,0,0,0-.86-1.81A5.49,5.49,0,0,0,204.16,78C203.87,78.73,204.56,78.35,204.85,78.46Z"/><path class="cls-4" d="M142.38,80.67c.24.93-.13,1.2-1,1.3-3,.3-5.92.69-8.86,1.13-1.05.16-1.37,0-1.11-1.12a22.49,22.49,0,0,0,.53-7.4c-.12-1.16.3-1.44,1.39-1.56,2.53-.3,5-.81,7.54-1.16.51-.07,1.43-.81,1.54.25.09.87.2,2.11-1.47,2.06-1.46,0-2.92.2-4.38.22-1.25,0-1.2.81-1.17,1.66,0,1.26.95.62,1.42.55,1.39-.21,2.76-.57,4.14-.83a2.93,2.93,0,0,1,.77.06c-.08.24-.13.49-.23.72a1.87,1.87,0,0,1-1.87,1.24,32.09,32.09,0,0,0-3.37.46c-.9.12-.95.73-.9,1.43.07.88.69.67,1.2.57a41.22,41.22,0,0,0,4.29-.86C142.08,79,142.63,79.3,142.38,80.67Z"/><path class="cls-4" d="M244,75.17a.92.92,0,0,0,0-.16c0-3.46,0-3.42,3.5-3.89,1-.13,1,.1.69.87a21.53,21.53,0,0,0-1.61,6.71c-.13,1.33.35,1.74,1.61,1.49s2.44-.48,3.67-.61c.49-.06,1.43-.72,1.41,0s.17,2.41-1.12,2.5c-2.76.19-5.48.58-8.22.89-1.14.13-.6-.69-.55-1A49.65,49.65,0,0,0,244,75.17Z"/><path class="cls-2" d="M194.35,43.59a32,32,0,0,1,7.44.48c3.14.75,5,2.58,5.13,5.1.18,3-1.38,5.23-4.48,6.37-2.57.94-2.56.94-.88,3.09q1.84,2.35,3.66,4.74c.19.25.47.58.41.81s-.54.22-.83.22c-2,0-3.91,0-5.86,0a1.6,1.6,0,0,1-1.53-1c-1.21-2-2.48-3.93-3.74-5.88-.16-.25-.19-.74-.6-.63-.16,0-.21.53-.28.83-.37,1.79-.78,3.58-1.09,5.39-.15.92-.53,1.28-1.48,1.24-1.51-.06-3,0-4.55,0-.9,0-1.14-.34-1-1.17q1.88-9.36,3.72-18.73a1,1,0,0,1,1.22-1C191.2,43.63,192.77,43.59,194.35,43.59Zm1.11,9.48c3.25,0,4.65-.91,4.62-2.92,0-1.67-1.3-2.43-4-2.41-1.41,0-2.09,1.38-2.22,4.58C193.77,54,195.14,52.5,195.46,53.07Z"/><path class="cls-2" d="M154,64.41c-2.65.94-4.29-.8-5.62-3.31A36.27,36.27,0,0,0,146,57.65a25.35,25.35,0,0,0-2.88,3c-2.14,3.08-4.93,4.45-8.69,3.79-1-.18-2.12.16-3.16-.22a9.51,9.51,0,0,1,2.2-2.32c2.7-2.65,5.4-5.31,8.16-7.9.66-.63.65-1,.12-1.73-1.86-2.46-3.65-5-5.45-7.46-.22-.3-.58-.72-.5-.95.18-.48.76-.17,1.15-.25.16,0,.33,0,.49,0,4.16-.69,7.37.42,9,4.62.34.86.84.87,1.33.11,2.61-4.07,6.32-5.56,11-4.72.46.08,1.11-.25,1.35.23s-.4.79-.72,1.11c-2.57,2.56-5.13,5.13-7.76,7.62a1.31,1.31,0,0,0-.16,2.13c2.19,2.81,4.31,5.68,6.45,8.54.21.29.51.71.44,1-.12.43-.65.2-1,.21C156.47,64.43,155.49,64.41,154,64.41Z"/><path class="cls-2" d="M164.28,64.41c-3.35,0-3.37,0-2.74-3.21,1.07-5.5,2.19-11,3.28-16.51.12-.64.28-1.14,1.09-1.11,3.68.14,7.37-.24,11.05.27,4.06.57,6.44,2.9,6.41,6.26,0,3.53-2.74,6.31-6.56,6.85a38.6,38.6,0,0,1-6.17.23c-1.13,0-1.54.38-1.62,1.45a17.49,17.49,0,0,1-.49,2.37C167.76,64.42,167.76,64.42,164.28,64.41ZM172,52.7a7.87,7.87,0,0,0,3.45-.53,2,2,0,0,0,.31-3.45,5.36,5.36,0,0,0-4.25-.49c-.89.26-.57,1.59-.84,2.43C170.15,52.18,170.1,53.28,172,52.7Z"/><path class="cls-2" d="M236.66,65a13.32,13.32,0,0,1-8.47-2.79c-.65-.49-.87-.91-.19-1.51.16-.15.3-.32.44-.48.8-.88,1.43-2.16,2.42-2.55s1.85,1,2.87,1.47a7.82,7.82,0,0,0,4.59.68A1.93,1.93,0,0,0,240,58.47c.26-.91-.42-1.43-1.08-1.79-1.29-.68-2.63-1.28-4-1.9-2-1-3.9-2.09-3.92-4.67A6.13,6.13,0,0,1,235,44.26c4.29-1.95,8.54-1.49,12.64.74.18.1.5.27.49.39-.18,1.52-1.52,2.36-2.22,3.59-.41.72-.91.32-1.37.07a7.5,7.5,0,0,0-4-1.27c-1,.06-1.92.34-2.22,1.33s.77,1.34,1.42,1.69c1.47.8,3.07,1.36,4.52,2.2,3.81,2.19,4,7,.52,9.64A13.13,13.13,0,0,1,236.66,65Z"/><path class="cls-2" d="M261.32,43.14A13.67,13.67,0,0,1,268.64,45c.66.38.89.76.26,1.34a1.31,1.31,0,0,0-.19.27c-2,2.78-2,2.77-5,1.58a5.44,5.44,0,0,0-1.24-.34c-1.23-.15-2.65-.16-3,1.2s1.08,1.68,2,2.11a29,29,0,0,1,4.49,2.25,5.56,5.56,0,0,1,.65,8.57c-4.13,4-13.16,4-17.45.13-.5-.45-.68-.8-.19-1.32.23-.24.42-.5.64-.73.77-.84,1.4-2,2.35-2.41s1.73,1,2.7,1.43a7.78,7.78,0,0,0,5.06.65,1.7,1.7,0,0,0,1.46-1.36,1.65,1.65,0,0,0-1-1.58c-1.4-.72-2.85-1.33-4.25-2-1.91-1-3.78-2-3.8-4.57,0-2.76,1.42-4.56,3.73-5.81A10.21,10.21,0,0,1,261.32,43.14Z"/><path class="cls-2" d="M121.19,64.41c-2.06,0-4.12,0-6.18,0-1.06,0-1.5-.26-1.27-1.38q1.86-9.13,3.64-18.27c.18-.9.57-1.22,1.52-1.21q6.25.07,12.52,0c1.09,0,1.28.38,1.13,1.34-.53,3.52-.51,3.52-4.15,3.52-1.19,0-2.38,0-3.57,0-.75,0-1.17.16-1.35,1-.52,2.34-.56,2.33,1.9,2.33h2c3.36,0,3.7.56,2.51,3.81-.27.75-.77.77-1.39.76-1.68,0-3.36,0-5,0-2-.07-1.58,1.65-1.78,2.67-.26,1.33,1,.77,1.58.8,1.74.08,3.47,0,5.21,0,.79,0,1.11.29.89,1.07l0,.16c-.52,3.4-.52,3.4-4,3.4Z"/><path class="cls-2" d="M216.24,64.4c-2.06,0-4.13,0-6.19,0-1,0-1.35-.21-1.13-1.29q1.85-9,3.56-18c.23-1.22.72-1.64,2-1.61q5.85.15,11.72,0c1.52,0,1.71.51,1.43,1.8-.67,3.06-.63,3.07-3.71,3.08-1.31,0-2.61.05-3.91,0-.89,0-1.23.32-1.39,1.16-.42,2.19-.45,2.19,1.85,2.19h1.95c3.37,0,3.32,0,2.7,3.31-.19,1.06-.66,1.3-1.63,1.27-1.68-.06-3.37,0-5,0-2.05,0-1.44,1.76-1.64,2.75-.24,1.18,1,.62,1.52.66a44.13,44.13,0,0,0,4.88,0c1.25-.07,1.47.43,1.23,1.52-.86,3.77,0,3-3.65,3.12-1.52,0-3,0-4.56,0Z"/><path class="cls-1" d="M162.6,45.38c-1,5.1-2,10.07-3,15a4.92,4.92,0,0,1-.37.89,8.22,8.22,0,0,1-.66-.66c-1.54-2-3.09-4-4.61-6.06-.38-.49-.64-1-.06-1.58,2.69-2.59,5.36-5.2,8.05-7.78a3.07,3.07,0,0,1,.67-.36Z"/><path class="cls-1" d="M131.74,59c.28-3.34.35-6.72,2-9.79a1,1,0,0,0,.09-.3c.17-.82-.12-2.08.76-2.3s1.34,1.06,1.89,1.73c.95,1.18,1.78,2.44,2.67,3.67.43.58.59,1.13,0,1.71-2,1.94-4,3.9-6.06,5.84-.3.29-.61.75-1.08.58S131.83,59.41,131.74,59Z"/><path class="cls-1" d="M251.68,54.25a6.37,6.37,0,0,1-1.68,2.4c-.56.38-.61-.17-.72-.5a7.73,7.73,0,0,0-2.4-3.59.87.87,0,0,1-.19-1.26,35.69,35.69,0,0,1,3.52-4.85.86.86,0,0,1,.36-.3c.26-.06.24.2.2.31C249.85,49.2,249.6,51.85,251.68,54.25Z"/><path class="cls-1" d="M231,54.86c-1.11.47-1.52,1.48-2.23,2.19-.56.55-.87,1.65-2,1.11a4,4,0,0,1-.39-.25c1.27-2.14.91-4.68,1.7-6.93.1-.27.2-.52.51-.55.47,0,.5.34.57.64.65,3.09,3,4.42,5.64,5.52a2.74,2.74,0,0,0,.46.15,4.7,4.7,0,0,1,2.1,1.17c-.05.05-.08.12-.14.15a2.73,2.73,0,0,1-2.46-.43,10.8,10.8,0,0,1-2.6-1.92A6.61,6.61,0,0,0,231,54.86Z"/><path class="cls-2" d="M70.7,17.17c5.32,0,10.64,0,16,0,11.79-.06,19.1,8.65,18.77,20.2-.34,12.17-10.2,25.24-23.8,28a21,21,0,0,1-14.49-2.12c-1-.53-1.17-.38-1.36.68C65,68.2,64,72.42,63.24,76.67c-.26,1.41-.69,2.08-2.37,2-6.67-.12-13.35-.08-20,0-1.29,0-1.5-.28-1.23-1.57,2.06-9.94,4-19.91,6.06-29.86.13-.65-.23-1.85,1.06-1.82,1.09,0,2,.23,2.33,1.69.43,2,2.54,3.1,5.17,3.12q6.67,0,13.35,0a4.86,4.86,0,0,1,2.61.68A13.38,13.38,0,1,0,70,28.06a6,6,0,0,1-3.34,1C61.45,29,56.24,29,51,29c-1.28,0-1.75-.27-1.43-1.65.65-2.78,1.24-5.59,1.67-8.42.22-1.4.73-1.84,2.17-1.82C59.2,17.22,65,17.17,70.7,17.17Z"/><path class="cls-1" d="M89.27,39.45a12.3,12.3,0,1,1-12-12.25A12.2,12.2,0,0,1,89.27,39.45ZM68.43,35.91c.34,0,.61-.24.45-.35a16.16,16.16,0,0,0-2-1.05c-.2-.09-.54.08-.4.29C67,35.49,67.84,35.55,68.43,35.91Zm17.23.48c.59-.67,1.59-.44,2-1.28,0,0-.23-.27-.3-.24a5.37,5.37,0,0,0-2.14,1S85.45,36.15,85.66,36.39ZM82,29.5c.15-.32,0-.63-.14-.58-.92.26-.72,1.3-1.21,1.87-.16.19-.08.53.14.47C81.68,31,81.48,30,82,29.5ZM73.38,48c0-.3-.19-.61-.26-.5A19.7,19.7,0,0,0,72,49.56c0,.06.19.32.2.32C73,49.48,73,48.58,73.38,48ZM71,32.57,69.2,31c-.09.11-.27.26-.24.32A5,5,0,0,0,70.55,33C70.69,33.15,70.94,33,71,32.57ZM71,46c-.26-.15-.53-.37-.57-.33a20.09,20.09,0,0,0-1.63,1.56c-.16.18.14.51.28.4C69.76,47.16,70.34,46.6,71,46ZM85.47,31.37c-.32-.11-.56-.27-.64-.21a4.85,4.85,0,0,0-1.62,1.69c-.1.23.28.38.41.27C84.22,32.61,84.77,32,85.47,31.37Zm-11.75-.68c-.37-.62-.36-1.52-1.09-2-.27-.16-.35.27-.28.39.37.68.35,1.57,1.06,2.05C73.6,31.29,73.7,31,73.72,30.69ZM68.79,43c0-.33-.17-.49-.39-.41a3.74,3.74,0,0,0-2,1c-.13.18.13.44.36.32C67.47,43.57,68.27,43.54,68.79,43Zm12.95,6.57c-.34-.59-.69-1.28-1.13-1.92-.06-.09-.39.23-.29.41.37.67.37,1.55,1.09,2C81.6,50.17,81.75,49.9,81.74,49.56Zm3.31-2.28c-.49-.45-1-1-1.66-1.49-.17-.13-.42.21-.27.39a14.64,14.64,0,0,0,1.56,1.59C84.83,47.91,85.07,47.72,85.05,47.28Zm-7.68,2.33c-.55-.22.55-1.12-.43-1.14-.52,0-.31.72-.27,1.07s-.31,1.31.34,1.34S77.17,50.12,77.37,49.61ZM87.54,43.8c-.62-.29-1.3-.64-2-.93-.15-.07-.54,0-.4.28.42.76,1.34.74,2,1.12C87.26,44.33,87.57,44.29,87.54,43.8Zm-.34-4.08c.44-.12,1.26.22,1.26-.27,0-.75-.85-.38-1.3-.37s-1.2-.37-1.17.34C86,40,86.79,39.58,87.2,39.72ZM76.63,29.05c.24.44-.34,1.26.43,1.33.42,0,.25-.71.23-1.1S77.57,28.11,77,28,76.76,28.69,76.63,29.05ZM66.8,39.79c.37-.27,1.17.25,1.23-.33.07-.73-.73-.37-1.13-.39s-1.22-.26-1.26.28C65.58,40.08,66.39,39.54,66.8,39.79Z"/><path class="cls-1" d="M43.41,36.2H61.63c1,0,2.13-.07,1.88,1.45-.2,1.23.68,3-1.95,3-8.77-.13-17.56,0-26.34-.09a28,28,0,0,1-8.63-1.28c-1.31-.44-3.12-1.1-2.95-2.57.13-1.06,2-.44,3-.45C32.25,36.17,37.83,36.2,43.41,36.2Z"/><path class="cls-1" d="M47.65,34.6c-6.2-.28-12.17.19-18.12-.37a10.51,10.51,0,0,1-4.79-1.86,1.23,1.23,0,0,1-.67-1.5c.24-.64.87-.6,1.39-.57,7.2.39,14.39,0,21.59.13,5.73.08,11.46,0,17.2,0,1.76,0,1.78.23,1.21,1.88-.68,2-2.08,2.31-3.89,2.29C56.85,34.57,52.13,34.6,47.65,34.6Z"/><path class="cls-1" d="M54.1,41.86c2.6,0,5.2,0,7.8,0a1.7,1.7,0,0,1,1.81,1.06c.4,1,.34,1.71-1,1.71-4.33,0-8.67,0-13,0a9.57,9.57,0,0,1-3.74-1c-.49-.22-1-.55-.88-1.2s.73-.52,1.22-.52h7.8Z"/><path class="cls-1" d="M59.52,49H53.68a3.39,3.39,0,0,1-3-1.4c-.49-.69-.37-1.28.62-1.29q6.4,0,12.81,0a2.78,2.78,0,0,1,2.1,1.36c.23.3.52.62.38,1s-.71.4-1.12.4h-6Z"/><path class="cls-2" d="M136,36.76a5.23,5.23,0,0,0-1,0c-1.69.29-2.67-.27-2.77-2.1-.07-1.46-.88-2-2.36-1.86a33.43,33.43,0,0,1-5.2,0,2.22,2.22,0,0,0-2.52,1.51,3.51,3.51,0,0,1-4.26,2.47,34.3,34.3,0,0,0-4.19-.15c.31-1.46,1.32-2.54,2-3.77,3.08-5.2,6.24-10.36,9.27-15.6a2.37,2.37,0,0,1,2.44-1.36c1.84.07,3.69.08,5.53,0a1.31,1.31,0,0,1,1.56,1.17c1.49,6,3,11.94,4.58,17.87.45,1.65-.06,2-1.53,1.82a12.65,12.65,0,0,0-1.63,0Zm-7.8-8.54c2.65,0,2.65,0,2-2.59-.16-.67-.36-1.34-.52-2s-.3-1.35-.45-2c-.36.64-.72,1.28-1.07,1.92s-.88,1.59-1.33,2.39C125.51,28.23,125.51,28.23,128.16,28.22Z"/><path class="cls-2" d="M172.72,15.93c4.17,0,4.15,0,5.16,4,1.3,5.18,2.59,10.37,4,15.53.29,1.1,0,1.36-1,1.3-.65,0-1.3,0-2,0-3.22,0-3.26,0-4.28-3.05a1.16,1.16,0,0,0-1.32-.88c-2.22,0-4.45.07-6.67,0A1.62,1.62,0,0,0,165,34.05c-.83,2.29-2.38,3.12-4.74,2.72-1.25-.22-3.12.59-3.64-.35s1-2.19,1.62-3.28c3-5.06,6.14-10,9.05-15.18.9-1.59,1.92-2.29,3.69-2A13.36,13.36,0,0,0,172.72,15.93Zm-2,12.27a6.28,6.28,0,0,1,1,0c1.45.23,1.78-.31,1.36-1.67s-.69-2.92-1-4.39c0-.18-.11-.36-.16-.55a3.33,3.33,0,0,0-.38.48c-.71,1.33-1.39,2.66-2.11,4C168.16,28.24,168.15,28.23,170.71,28.2Z"/><path class="cls-2" d="M148.38,36.76c-2.11,0-4.23,0-6.34,0-.86,0-1.16-.26-1-1.14q1.8-9.36,3.54-18.75c.14-.78.52-.95,1.21-.94,1.52,0,3,0,4.55,0,1,0,1.11.35.92,1.27-.87,4.34-1.57,8.7-2.51,13-.31,1.46.15,1.65,1.39,1.59,1.78-.07,3.58,0,5.36,0,1,0,1.14.24,1,1.23-.58,3.73-.53,3.74-4.22,3.74Z"/><path class="cls-2" d="M250.85,15.93c2.61-.94,3.92.83,5,3.39,1.31,3.07,2.94,6,4.44,9,.09.19.23.51.32.5.39,0,.22-.41.24-.64.31-3.77,1.34-7.43,1.92-11.16.13-.81.45-1.11,1.26-1.09,1.51,0,3,.05,4.55,0,.92,0,1,.28.88,1.15-1.21,6.14-2.39,12.29-3.49,18.45-.19,1.07-.67,1.33-1.61,1.24a4.36,4.36,0,0,0-1.3,0c-3.69.78-5.72-.87-7-4.26a72.46,72.46,0,0,0-3.92-7.64c-.16-.3-.18-.73-.61-.86-.09.36-.21.72-.28,1.09-.59,3.4-1.21,6.8-1.75,10.2-.17,1.1-.6,1.65-1.79,1.48a11.52,11.52,0,0,0-1.95,0c-3.27,0-3.28,0-2.68-3.11,1-5.3,2.08-10.59,3-15.91.25-1.51.84-2,2.3-1.82A21.52,21.52,0,0,0,250.85,15.93Z"/><path class="cls-2" d="M237.65,36.76a5.24,5.24,0,0,0-1,0c-1.83.34-2.72-.43-2.84-2.25-.09-1.29-.76-1.81-2.15-1.71-1.94.14-3.9.05-5.85,0-.69,0-1.38,0-1.61.78-1,3.14-3.34,3.51-6.12,3.17-.89-.11-2.13.4-2.58-.3s.6-1.48,1-2.21c3.45-5.8,6.94-11.57,10.37-17.39a1.66,1.66,0,0,1,1.68-.94c2.33,0,5.13-.74,6.85.28s1.51,4.14,2.1,6.34c1.09,4.12,2.05,8.28,3.21,12.37.46,1.61,0,2-1.5,1.84A12.5,12.5,0,0,0,237.65,36.76Zm-7.8-8.56c2.63,0,2.63,0,2-2.62-.28-1.14-.54-2.29-.81-3.44a5.66,5.66,0,0,0-.2-.58l-.3.54c-.69,1.28-1.37,2.56-2.08,3.82C227.17,28.22,227.16,28.21,229.85,28.2Z"/><path class="cls-2" d="M205.76,36.77c-3.33,0-3.35,0-4-3.24-.5-2.6-.94-5.2-1.41-7.81l-.15-.76c-.4.1-.38.46-.5.75-1.27,3.27-2.59,6.53-3.81,9.82A1.63,1.63,0,0,1,194,36.8c-1-.09-2,0-2.93,0-2.84,0-2.82,0-3.4-2.71-1.2-5.54-2.38-11.09-3.65-16.62-.29-1.29.06-1.53,1.29-1.52,5,0,5,0,5.89,5.05q.65,3.91,1.31,7.83c0,.24.12.47.18.7a4.86,4.86,0,0,0,.39-.65c1.53-3.87,3.08-7.74,4.54-11.63a1.71,1.71,0,0,1,1.88-1.3c4.73,0,4.75,0,5.53,4.63.46,2.78.88,5.55,1.32,8.33,0,.25.08.69.16.7.4.05.25-.35.34-.56q2.72-6.06,5.41-12.14a1.3,1.3,0,0,1,1.33-.94c1.57,0,3.15,0,4.72,0,1,0,1.13.32.71,1.17Q214.3,26.52,209.62,36a1.35,1.35,0,0,1-1.42.83C207.39,36.74,206.58,36.77,205.76,36.77Z"/><path class="cls-1" d="M150.19,75.38c-.62-.15-1.34.33-1.47-.68s.71-.88,1.27-.93c1.34-.13,2.68-.19,4-.24.57,0,1.41-.07,1.49.52s-.77.62-1.28.7C152.85,75,151.46,75.18,150.19,75.38Z"/><path class="cls-1" d="M191.09,75.44a1.14,1.14,0,0,1-.32,0c-.72-.2-1.92.68-2.1-.65s1.22-1.12,2-1.21a21.76,21.76,0,0,1,3.87,0c.31,0,.82,0,.88.53s-.39.71-.79.86A10.93,10.93,0,0,1,191.09,75.44Z"/><path class="cls-1" d="M120.64,75.42c-.57-.32-1.88.73-2-.6-.19-1.6,1.37-1.14,2.22-1.25a23.37,23.37,0,0,1,3.55,0c.43,0,1,.1,1,.64s-.43.7-.87.83A13.51,13.51,0,0,1,120.64,75.42Z"/><path class="cls-1" d="M169.43,78.45c-.4-.09-1.06.09-.83-.63a3.89,3.89,0,0,1,1.07-2,8.53,8.53,0,0,1,.91,2C170.72,78.65,169.79,78.18,169.43,78.45Z"/><path class="cls-1" d="M216.26,77.76c.09-3.09.09-3.1,3.22-2.62a9.94,9.94,0,0,1,3.25.93c1.3.68,1.41,1.62.21,2.45a12.94,12.94,0,0,1-6.12,1.87c-.58.07-.59-.26-.57-.69C216.28,79.06,216.26,78.41,216.26,77.76Z"/><path class="cls-1" d="M262.14,78.47c-.34-.08-1,.17-.7-.5a5.57,5.57,0,0,1,1.12-2.19,6.48,6.48,0,0,1,.91,2C263.53,78.65,262.58,78.25,262.14,78.47Z"/><path class="cls-1" d="M236.18,78.46c-.44-.11-1.08.26-.93-.41a3.56,3.56,0,0,1,1.11-2.22,7.26,7.26,0,0,1,.89,1.87C237.43,78.69,236.45,78.16,236.18,78.46Z"/><path class="cls-1" d="M204.85,78.46c-.29-.11-1,.27-.69-.44a5.49,5.49,0,0,1,1.14-2.21,6.8,6.8,0,0,1,.86,1.81C206.34,78.7,205.32,78.24,204.85,78.46Z"/><path class="cls-3" d="M195.46,53.07c-.32-.57-1.69.93-1.62-.75.13-3.2.81-4.57,2.22-4.58,2.72,0,4,.74,4,2.41C200.11,52.16,198.71,53.07,195.46,53.07Z"/><path class="cls-3" d="M172,52.7c-1.88.58-1.83-.52-1.33-2,.27-.84-.05-2.17.84-2.43a5.36,5.36,0,0,1,4.25.49,2,2,0,0,1-.31,3.45A7.87,7.87,0,0,1,172,52.7Z"/><path class="cls-2" d="M68.43,35.91c-.59-.36-1.45-.42-1.92-1.11-.14-.21.2-.38.4-.29a16.16,16.16,0,0,1,2,1.05C69,35.67,68.77,35.89,68.43,35.91Z"/><path class="cls-2" d="M85.66,36.39c-.21-.24-.46-.49-.45-.5a5.37,5.37,0,0,1,2.14-1c.07,0,.31.2.3.24C87.25,36,86.25,35.72,85.66,36.39Z"/><path class="cls-2" d="M82,29.5c-.5.45-.3,1.51-1.21,1.76-.22.06-.3-.28-.14-.47.49-.57.29-1.61,1.21-1.87C82,28.87,82.13,29.18,82,29.5Z"/><path class="cls-2" d="M73.38,48c-.37.6-.35,1.5-1.17,1.9,0,0-.23-.26-.2-.32a19.7,19.7,0,0,1,1.11-2.08C73.19,47.37,73.41,47.68,73.38,48Z"/><path class="cls-2" d="M71,32.57c0,.39-.3.58-.44.46A5,5,0,0,1,69,31.29c0-.06.15-.21.24-.32Z"/><path class="cls-2" d="M71,46c-.7.6-1.28,1.16-1.92,1.63-.14.11-.44-.22-.28-.4a20.09,20.09,0,0,1,1.63-1.56S70.78,45.85,71,46Z"/><path class="cls-2" d="M85.47,31.37c-.7.67-1.25,1.24-1.85,1.75-.13.11-.51,0-.41-.27a4.85,4.85,0,0,1,1.62-1.69C84.91,31.1,85.15,31.26,85.47,31.37Z"/><path class="cls-2" d="M73.72,30.69c0,.27-.12.6-.31.47-.71-.48-.69-1.37-1.06-2.05-.07-.12,0-.55.28-.39C73.36,29.17,73.35,30.07,73.72,30.69Z"/><path class="cls-2" d="M68.79,43c-.52.55-1.32.58-2,.89-.23.12-.49-.14-.36-.32a3.74,3.74,0,0,1,2-1C68.62,42.5,68.81,42.66,68.79,43Z"/><path class="cls-2" d="M81.74,49.56c0,.34-.14.61-.33.49-.72-.45-.72-1.33-1.09-2-.1-.18.23-.5.29-.41C81.05,48.28,81.4,49,81.74,49.56Z"/><path class="cls-2" d="M85.05,47.28c0,.44-.22.63-.37.49a14.64,14.64,0,0,1-1.56-1.59c-.15-.18.1-.52.27-.39C84,46.27,84.56,46.83,85.05,47.28Z"/><path class="cls-2" d="M77.37,49.61c-.2.51.27,1.31-.36,1.27s-.28-.87-.34-1.34-.25-1.08.27-1.07C77.92,48.49,76.82,49.39,77.37,49.61Z"/><path class="cls-2" d="M87.54,43.8c0,.49-.28.53-.4.47-.67-.38-1.59-.36-2-1.12-.14-.26.25-.35.4-.28C86.24,43.16,86.92,43.51,87.54,43.8Z"/><path class="cls-2" d="M87.2,39.72c-.41-.14-1.19.26-1.21-.3,0-.71.77-.34,1.17-.34s1.29-.38,1.3.37C88.46,39.94,87.64,39.6,87.2,39.72Z"/><path class="cls-2" d="M76.63,29.05c.13-.36-.22-1.09.4-1s.25.81.26,1.24.19,1.14-.23,1.1C76.29,30.31,76.87,29.49,76.63,29.05Z"/><path class="cls-2" d="M66.8,39.79c-.41-.25-1.22.29-1.16-.44,0-.54.82-.31,1.26-.28s1.2-.34,1.13.39C68,40,67.17,39.52,66.8,39.79Z"/><path class="cls-3" d="M128.16,28.22c-2.65,0-2.65,0-1.33-2.33.45-.8.88-1.6,1.33-2.39s.71-1.28,1.07-1.92c.15.68.29,1.36.45,2s.36,1.35.52,2C130.81,28.21,130.81,28.21,128.16,28.22Z"/><path class="cls-3" d="M170.71,28.2c-2.56,0-2.55,0-1.35-2.14.72-1.32,1.4-2.65,2.11-4a3.33,3.33,0,0,1,.38-.48c.05.19.12.37.16.55.34,1.47.59,3,1,4.39s.09,1.9-1.36,1.67A6.28,6.28,0,0,0,170.71,28.2Z"/><path class="cls-3" d="M229.85,28.2c-2.69,0-2.68,0-1.38-2.28.71-1.26,1.39-2.54,2.08-3.82l.3-.54a5.66,5.66,0,0,1,.2.58c.27,1.15.53,2.3.81,3.44C232.48,28.19,232.48,28.19,229.85,28.2Z"/></g></g></svg>