<svg xmlns="http://www.w3.org/2000/svg" viewBox="0 0 383.87 123.57"><defs><style>.cls-1{fill:#feffff;}.cls-2{fill:#263c81;}.cls-3{fill:#259cd4;}.cls-4{fill:#273d82;}.cls-5{fill:#232e66;}.cls-6{fill:#f5f9f9;}</style></defs><g id="Layer_2" data-name="Layer 2"><g id="Layer_1-2" data-name="Layer 1"><path class="cls-1" d="M0,0Q0,61.79,0,123.57H383.87q0-61.78,0-123.57ZM74.81,75.65A33.68,33.68,0,0,1,61,77.88c-3-.2-4.33,1.12-4.74,4-.74,5.12-1.67,10.22-2.43,15.35-.61,4.14-1.68,5.12-5.81,5-3.37-.06-6.73-.09-10.09-.12-4.25,0-5.34-1.11-4-5.16,1.22-3.66,0-4.18-3.29-4.16-4.44,0-8.92.68-13.32-.43l-1.06-.79c-1.42-1.41-.65-3.16-.42-4.61C19.09,65.9,22.52,44.85,25.9,23.8c.12-.74.21-1.48.28-2.22.61-6.27,1.57-7.11,8.35-7.23,9.93-.31,19.87-.27,29.8.06a11.34,11.34,0,0,1,2.47.67C78.32,15.79,86,26.16,82.42,36.14a.65.65,0,0,0,.08.59c5.26,1.91,7.21,6.13,7.6,11.27C90.88,58.45,86.47,71.4,74.81,75.65Zm80.56-5.76a28.31,28.31,0,0,1-15,2.61c-4-.34-5.33,1.43-5.64,5-.25,3-1,5.88-1.34,8.84C133.1,89,131.9,90,129.27,90c-9.38.17-9.46.22-8.09-9,2-13.25,4.11-26.49,6.12-39.74.39-2.6,1.45-4,4.37-3.8,3.22.21,6.47.05,10.38.05,3.92.29,8.53-.42,13.11.59,6.9,1.52,10.78,6,10.33,13.42C165,59.16,163,66.17,155.37,69.89Zm51.13-8.11C205.3,70,204,78.12,202.7,86.3c-.4,2.57-1.56,4.06-4.47,3.7a22.38,22.38,0,0,0-4.84,0c-2.56.24-3.82-.66-3.19-3.92-5.33,4.27-10.68,5.61-16.41,4.33-9.14-2-13.49-12.07-9.65-22.2,2.9-7.62,8.31-12.48,16.57-13.89,5.11-.87,9.49,1,14,3.51.32-3.79,3.22-2.89,5.59-2.91C207.43,54.87,207.5,54.9,206.5,61.78Zm48.34-4.51c-.55.81-.78,2-1.41,2.87q-13.32,19.15-26.62,38.34c-2.2,3.16-10.15,5.22-13.55,3.51-1.68-.84-.95-2-.21-3.08,2.35-3.37,4.62-6.8,7.13-10a4.69,4.69,0,0,0,.78-5.09c-3-8.3-5.6-16.71-8.58-25-1-2.88-.41-3.92,2.61-3.89,10.48.12,9.15-1.11,11.48,8,.49,1.91,1.21,3.77,1.81,5.66s1.1,3.56,1.86,6c4.09-6,7.78-11.44,11.49-16.87,1.58-2.32,10.36-4.14,12.58-2.5C254.57,55.46,255.7,56,254.84,57.27Zm24.08,15.39c-8.71.29-8.71.29-9.66,9-.07.62-.17,1.23-.27,1.85-1.09,6.5-1.09,6.5-7.5,6.5-7,0-6.83,0-5.73-6.79,2.18-13.5,4.21-27,6.22-40.55.69-4.67,1-5.06,5.88-5.06,6.11,0,12.22-.08,18.33,0,10.87.19,16.39,7.22,14.11,17.85C297.83,67,291.32,72.23,278.92,72.66Zm63.25-14.4c-1.47,8.28-2.85,16.59-4,24.92-.87,6.56-.89,6.78-7.7,6.78-1.71-.78-4.89,1.77-5.81-2.3-.25-1.12-1.15,0-1.7.28a19.35,19.35,0,0,1-8.72,2.85c-12,.8-19.42-9.18-15.74-21.1,4.15-13.46,16.45-18.88,29.43-13,.56.26,1.19.77,1.65.14,2.83-3.94,6.88-1.52,10.35-1.89C341.49,54.81,342.55,56.1,342.17,58.26Zm20-12.79c-1.73,11.59-3.1,23.25-5.83,34.68a25.53,25.53,0,0,0-.16,3.29l-.06.59c-.06.53-.12,1-.17,1.45s-.15,1.09-.23,1.52c0,.18-.07.34-.11.5a4.53,4.53,0,0,1-.41,1.09,1.07,1.07,0,0,1-.13.21,2.43,2.43,0,0,1-.3.34,2.16,2.16,0,0,1-.58.38,1.57,1.57,0,0,1-.23.09l-.26.08a4.06,4.06,0,0,1-.57.12l-.38,0c-.21,0-.44,0-.69.06l-.85,0c-.61,0-1.3,0-2.1,0h-3.35c-1.79,0-2.45-1-2.19-2.68q2.25-14.34,4.53-28.68c.9-5.75,1.95-11.49,2.62-17.27.32-2.78,1.32-3.82,4.19-3.83C363.34,37.49,363.4,37.39,362.19,45.47Z"/><path class="cls-2" d="M66.8,15.08C78.32,15.79,86,26.16,82.42,36.14c-3.16-2.21-7.17-2.29-10.5-2.38-6.3-.19-12.68-.17-19,.07-2.35.09-4.68-.16-7,.49-1.74.48-2.3,1.13-2.53,2.94C42.73,42,41.44,46.73,41,51.52c-.36,4-2.51,8.06-.5,12.2a9,9,0,0,0-1.8,4c-1.73,7.88-1.95,16-4.23,23.8l-18.27.09c-1.42-1.41-.65-3.16-.42-4.61C19.09,65.9,22.52,44.85,25.9,23.8c.12-.74.21-1.48.28-2.22.61-6.27,1.57-7.11,8.35-7.23.65,1.08,1.72.77,2.66.77Q52,15.12,66.8,15.08Z"/><path class="cls-3" d="M34.49,91.48c2.28-7.77,2.5-15.92,4.23-23.8a9,9,0,0,1,1.8-4c4.48-1.46,9.1-.53,13.64-.66,15.63-.45,27.43-11.33,28.34-26.33,5.26,1.91,7.21,6.13,7.6,11.27.78,10.45-3.63,23.4-15.29,27.65A33.68,33.68,0,0,1,61,77.88c-3-.2-4.33,1.12-4.74,4-.74,5.12-1.67,10.22-2.43,15.35-.61,4.14-1.68,5.12-5.81,5-3.37-.06-6.73-.09-10.09-.12-4.25,0-5.34-1.11-4-5.16,1.22-3.66,0-4.18-3.29-4.16-4.44,0-8.92.68-13.32-.43,2.86-.06,5.72,0,8.56-.21S31.71,93,34.49,91.48Z"/><path class="cls-3" d="M286.19,37.6c-6.11-.11-12.22,0-18.33,0-4.87,0-5.19.39-5.88,5.06-2,13.53-4,27.05-6.22,40.55C254.66,90,254.51,90,261.49,90c6.41,0,6.41,0,7.5-6.5.1-.62.2-1.23.27-1.85.95-8.67.95-8.67,9.66-9,12.4-.43,18.91-5.66,21.38-17.21C302.58,44.82,297.06,37.79,286.19,37.6Zm-5.65,23.94c-1.58.29-3.2.38-4.8.56-2.9.39-3.95-.61-3-3.57a36.11,36.11,0,0,0,.95-5.1c.87-5.61.86-5.61,6.33-5.38,4,.17,6.05,1.75,6.37,4.85C286.83,57.3,284.5,60.81,280.54,61.54Z"/><path class="cls-4" d="M155.16,38.15c-4.58-1-9.19-.3-13.11-.59-3.91,0-7.16.16-10.38-.05-2.92-.2-4,1.2-4.37,3.8-2,13.25-4.14,26.49-6.12,39.74-1.37,9.18-1.29,9.13,8.09,9,2.63,0,3.83-1,4.09-3.64.29-3,1.09-5.88,1.34-8.84.31-3.6,1.67-5.37,5.64-5a28.31,28.31,0,0,0,15-2.61C163,66.17,165,59.16,165.49,51.57,165.94,44.19,162.06,39.67,155.16,38.15Zm-6.88,22.32c-2.28,1.28-4.76,2.59-7.76,2.36-2.57.51-3.47-.63-2.89-3.28.39-1.82.48-3.71.88-5.52.44-2-.28-5,1.85-5.65a11.07,11.07,0,0,1,9.06.79C152.7,51.16,152.09,58.33,148.28,60.47Z"/><path class="cls-3" d="M340,55c-3.47.37-7.52-2-10.35,1.89-.46.63-1.09.12-1.65-.14-13-5.92-25.28-.5-29.43,13-3.68,11.92,3.73,21.9,15.74,21.1A19.35,19.35,0,0,0,323,87.94c.55-.33,1.45-1.4,1.7-.28.92,4.07,4.1,1.52,5.81,2.3,6.81,0,6.83-.22,7.7-6.78,1.12-8.33,2.5-16.64,4-24.92C342.55,56.1,341.49,54.81,340,55Zm-22.4,26.11c-4.69-.08-7.27-2.64-7.21-7.16a9.88,9.88,0,0,1,10.24-10.08c4.69,0,7.39,2.78,7.34,7.46C327.87,77.15,323.59,81.19,317.56,81.09Z"/><path class="cls-4" d="M200.31,54.92c-2.37,0-5.27-.88-5.59,2.91-4.52-2.55-8.9-4.38-14-3.51-8.26,1.41-13.67,6.27-16.57,13.89-3.84,10.13.51,20.16,9.65,22.2,5.73,1.28,11.08-.06,16.41-4.33-.63,3.26.63,4.16,3.19,3.92a22.38,22.38,0,0,1,4.84,0c2.91.36,4.07-1.13,4.47-3.7,1.26-8.18,2.6-16.33,3.8-24.52C207.5,54.9,207.43,54.87,200.31,54.92ZM182.79,81.17c-4.71,0-7.7-2.86-7.64-7.23a10.31,10.31,0,0,1,10.61-10.15c4.63.09,7.41,2.92,7.35,7.48A9.87,9.87,0,0,1,182.79,81.17Z"/><path class="cls-5" d="M82.5,36.73c-.91,15-12.71,25.88-28.34,26.33-4.54.13-9.16-.8-13.64.66-2-4.14.14-8.17.5-12.2.42-4.79,1.71-9.48,2.32-14.26.23-1.81.79-2.46,2.53-2.94,2.36-.65,4.69-.4,7-.49,6.33-.24,12.71-.26,19-.07,3.33.09,7.34.17,10.5,2.38A.65.65,0,0,0,82.5,36.73Z"/><path class="cls-4" d="M230.14,74.57c4.09-6,7.78-11.44,11.49-16.87,1.58-2.32,10.36-4.14,12.58-2.5.36.26,1.49.81.63,2.07-.55.81-.78,2-1.41,2.87q-13.32,19.15-26.62,38.34c-2.2,3.16-10.15,5.22-13.55,3.51-1.68-.84-.95-2-.21-3.08,2.35-3.37,4.62-6.8,7.13-10a4.69,4.69,0,0,0,.78-5.09c-3-8.3-5.6-16.71-8.58-25-1-2.88-.41-3.92,2.61-3.89,10.48.12,9.15-1.11,11.48,8,.49,1.91,1.21,3.77,1.81,5.66S229.38,72.08,230.14,74.57Z"/><path class="cls-3" d="M349.13,90c-1.12,0-2.24,0-3.35,0-1.79,0-2.45-1-2.19-2.68q2.25-14.34,4.53-28.68c.9-5.75,1.95-11.49,2.62-17.27.32-2.78,1.32-3.82,4.19-3.83,8.41,0,8.47-.11,7.26,8-1.73,11.59-3.1,23.25-5.83,34.68a25.53,25.53,0,0,0-.16,3.29C355.5,90,355.49,90,349.13,90Z"/><path class="cls-5" d="M66.8,15.08q-14.8,0-29.61,0c-.94,0-2,.31-2.66-.77,9.93-.31,19.87-.27,29.8.06A11.34,11.34,0,0,1,66.8,15.08Z"/><path class="cls-5" d="M34.49,91.48c-2.78,1.48-5.76.46-8.65.67s-5.7.15-8.56.21l-1.06-.79Z"/><path class="cls-6" d="M275.74,62.1c-2.9.39-3.95-.61-3-3.57a36.11,36.11,0,0,0,.95-5.1c.87-5.61.86-5.61,6.33-5.38,4,.17,6.05,1.75,6.37,4.85.46,4.4-1.87,7.91-5.83,8.64C279,61.83,277.34,61.92,275.74,62.1Z"/><path class="cls-6" d="M140.52,62.83c-2.57.51-3.47-.63-2.89-3.28.39-1.82.48-3.71.88-5.52.44-2-.28-5,1.85-5.65a11.07,11.07,0,0,1,9.06.79c3.28,2,2.67,9.16-1.14,11.3C146,61.75,143.52,63.06,140.52,62.83Z"/><path class="cls-6" d="M327.93,71.31c-.06,5.84-4.34,9.88-10.37,9.78-4.69-.08-7.27-2.64-7.21-7.16a9.88,9.88,0,0,1,10.24-10.08C325.28,63.89,328,66.63,327.93,71.31Z"/><path class="cls-6" d="M182.79,81.17c-4.71,0-7.7-2.86-7.64-7.23a10.31,10.31,0,0,1,10.61-10.15c4.63.09,7.41,2.92,7.35,7.48A9.87,9.87,0,0,1,182.79,81.17Z"/></g></g></svg>