<svg xmlns="http://www.w3.org/2000/svg" width="58" height="28" viewBox="0 0 58 28">
  <g id="Group_59" data-name="Group 59" transform="translate(-211 -322)">
    <g id="Layer_2" data-name="Layer 2" transform="translate(211 322.315)">
      <g id="invisible_box" data-name="invisible box">
        <rect id="Rectangle_20" data-name="Rectangle 20" width="28" height="28" transform="translate(0 -0.315)" fill="none"/>
      </g>
      <g id="icons_Q2" data-name="icons Q2" transform="translate(1.153 1.153)">
        <path id="Path_120" data-name="Path 120" d="M2,14.689A12.631,12.631,0,1,0,5.7,5.7,12.689,12.689,0,0,0,2,14.689ZM17.111,9.094a1.442,1.442,0,0,1,.461.981h0V19.3h0a1.442,1.442,0,0,1-.461.981,1.211,1.211,0,0,1-1.557-.231L11,15.5a1.1,1.1,0,0,1,0-1.615l4.557-4.557A1.211,1.211,0,0,1,17.111,9.094Z" transform="translate(-2 -2)" fill="#ffea20"/>
      </g>
    </g>
    <text id="prev" transform="translate(242 341)" fill="#fff" font-size="12" font-family="Gontserrat-Medium, Montserrat" font-weight="500"><tspan x="0" y="0">prev</tspan></text>
  </g>
</svg>
