<?xml version="1.0" encoding="UTF-8"?>
<svg id="Layer_2" data-name="Layer 2" xmlns="http://www.w3.org/2000/svg" viewBox="0 0 544.99 165.27">
  <defs>
    <style>
      .cls-1 {
        fill: #fff;
      }

      .cls-2 {
        fill: #ffea20;
      }

      .cls-3 {
        fill: #515252;
      }
    </style>
  </defs>
  <g id="Layer_3" data-name="Layer 3">
    <g>
      <rect class="cls-1" width="544.99" height="165.27" rx="47.41" ry="47.41"/>
      <g>
        <g>
          <path class="cls-3" d="m39.55,75.98v22.67c0,3.04.58,5.15,1.75,6.31,1.17,1.17,2.89,1.75,5.17,1.75,1.42,0,2.79-.23,4.11-.68v4.18c-1.62.4-3.27.61-4.94.61-3.35,0-5.97-.94-7.87-2.81-1.9-1.88-2.85-4.69-2.85-8.44v-23.58h-7.53v-3.73h7.53v-10.12l4.64-1.75v11.87h11.26v3.73h-11.26Z"/>
          <path class="cls-3" d="m78.49,71.64l-.23,4.18c-.96-.2-2.13-.3-3.5-.3-3.85,0-6.73,1.23-8.63,3.69-1.9,2.46-2.85,5.39-2.85,8.79v22.36h-4.56v-27.53c0-3.96-.2-7.48-.61-10.57h4.41l.61,7.07c.96-2.59,2.52-4.56,4.68-5.93,2.15-1.37,4.6-2.05,7.34-2.05,1.27,0,2.38.1,3.35.3Z"/>
          <path class="cls-3" d="m116.83,72.25v38.11h-4.64v-7.3c-1.12,2.54-2.8,4.48-5.06,5.82-2.26,1.34-4.96,2.02-8.1,2.02-3.4,0-6.38-.8-8.94-2.4-2.56-1.6-4.54-3.88-5.93-6.85-1.4-2.97-2.09-6.43-2.09-10.38s.71-7.44,2.13-10.46c1.42-3.02,3.41-5.35,5.97-7,2.56-1.65,5.51-2.47,8.86-2.47,3.09,0,5.77.66,8.02,1.98,2.26,1.32,3.97,3.25,5.13,5.78v-6.85h4.64Zm-7.91,30.43c2.18-2.74,3.27-6.59,3.27-11.56s-1.09-8.9-3.27-11.64c-2.18-2.74-5.27-4.11-9.28-4.11s-7.12,1.41-9.36,4.22c-2.23,2.81-3.35,6.71-3.35,11.67s1.12,8.74,3.35,11.45c2.23,2.71,5.38,4.07,9.43,4.07s7.02-1.37,9.2-4.11Z"/>
          <path class="cls-3" d="m157.06,72.25h4.72l-16.35,38.11h-4.79l-16.13-38.11h4.94l13.77,33.47,13.84-33.47Z"/>
          <path class="cls-3" d="m171.44,90.74v.23c0,5.12,1.18,9.04,3.54,11.75,2.36,2.71,5.79,4.07,10.31,4.07s8.75-1.57,12.55-4.72l1.83,3.65c-1.67,1.57-3.8,2.83-6.39,3.76-2.59.94-5.25,1.41-7.99,1.41-5.78,0-10.34-1.75-13.69-5.25-3.35-3.5-5.02-8.31-5.02-14.45,0-3.9.75-7.37,2.24-10.38,1.5-3.02,3.59-5.35,6.27-7,2.69-1.65,5.78-2.47,9.28-2.47,5.02,0,8.94,1.62,11.75,4.87,2.82,3.25,4.22,7.76,4.22,13.54v.99h-28.9Zm4.41-12.44c-2.18,2.11-3.55,5.06-4.11,8.86h24.19c-.3-3.9-1.45-6.88-3.42-8.94-1.98-2.05-4.69-3.08-8.14-3.08s-6.34,1.05-8.52,3.16Z"/>
          <path class="cls-3" d="m210.31,110.36v-55.98h4.56v55.98h-4.56Z"/>
        </g>
        <g>
          <path class="cls-2" d="m270.82,56.11c3.31,1.16,5.86,2.79,7.65,4.89,1.79,2.1,2.68,4.55,2.68,7.33s-.84,5.18-2.52,7.33c-1.68,2.16-3.94,3.65-6.78,4.49,3.31.74,5.96,2.38,7.96,4.93,2,2.55,3,5.56,3,9.02,0,3.1-.92,5.83-2.76,8.2-1.84,2.37-4.43,4.18-7.76,5.44-3.34,1.26-7.24,1.89-11.7,1.89h-29.32v-55.25h27.98c4.41,0,8.28.58,11.59,1.73Zm-9.58,18.44c.76-.74,1.14-1.71,1.14-2.92s-.38-2.09-1.14-2.8c-.76-.71-1.77-1.06-3.03-1.06h-8.75v7.88h8.75c1.26,0,2.27-.37,3.03-1.1Zm1.03,20.45c1.02-.81,1.54-1.88,1.54-3.19,0-1.21-.51-2.18-1.54-2.92-1.03-.74-2.38-1.1-4.06-1.1h-8.75v8.43h8.75c1.68,0,3.03-.41,4.06-1.22Z"/>
          <path class="cls-2" d="m308.18,93.16c1.58,1.68,3.47,2.52,5.67,2.52s3.94-.83,5.36-2.48,2.13-3.82,2.13-6.5v-32.32h18.29v32.32c0,4.83-1.06,9.08-3.19,12.73-2.13,3.65-5.14,6.48-9.02,8.47-3.89,2-8.43,2.99-13.64,2.99s-9.79-1-13.75-2.99c-3.97-2-7.04-4.82-9.22-8.47-2.18-3.65-3.27-7.89-3.27-12.73v-32.32h18.29v32.32c0,2.63.79,4.78,2.37,6.46Z"/>
          <path class="cls-2" d="m387.24,57.77c4.52,2.26,8.01,5.48,10.48,9.66,2.47,4.18,3.7,9.02,3.7,14.54s-1.26,10.43-3.78,14.58c-2.52,4.15-6.11,7.37-10.76,9.66s-10.05,3.43-16.2,3.43h-23.96v-55.25h24.67c6.04,0,11.32,1.13,15.84,3.39Zm-7.45,34.05c1.97-2.42,2.96-5.65,2.96-9.7s-1.06-7.38-3.19-9.85c-2.13-2.47-4.98-3.7-8.55-3.7h-5.99v26.88h6.86c3.31,0,5.95-1.21,7.92-3.63Z"/>
          <path class="cls-2" d="m447.06,57.77c4.52,2.26,8.01,5.48,10.48,9.66,2.47,4.18,3.7,9.02,3.7,14.54s-1.26,10.43-3.78,14.58c-2.52,4.15-6.11,7.37-10.76,9.66s-10.05,3.43-16.2,3.43h-23.96v-55.25h24.67c6.04,0,11.32,1.13,15.84,3.39Zm-7.45,34.05c1.97-2.42,2.96-5.65,2.96-9.7s-1.06-7.38-3.19-9.85c-2.13-2.47-4.98-3.7-8.55-3.7h-5.99v26.88h6.86c3.31,0,5.95-1.21,7.92-3.63Z"/>
          <path class="cls-2" d="m519.11,54.38l-19.78,38.07v17.18h-18.29v-16.79l-20.18-38.46h18.21l11.11,21.28,10.72-21.28h18.21Z"/>
        </g>
      </g>
    </g>
  </g>
</svg>