<svg xmlns="http://www.w3.org/2000/svg" width="70.709" height="22.857" viewBox="0 0 70.709 22.857">
  <path id="visa" d="M14.482,21.321a2.3,2.3,0,0,0-2.589-1.865H2.639l-.068.448c6.352,1.623,11.567,5.076,13.915,11.6l-2-10.185Zm2.589,13.258-.586-3.073a13.861,13.861,0,0,0-7.46-7.528l4.661,17.609H19.73l9.013-22.132H22.664L17.072,34.579ZM33.2,41.621l3.588-22.164h-5.73L27.463,41.621ZM48.835,19.076c-5.662,0-9.631,3.005-9.667,7.318-.035,3.178,2.831,4.938,5.005,6.01,2.245,1.07,2.97,1.795,2.97,2.76,0,1.485-1.795,2.142-3.417,2.142a10.862,10.862,0,0,1-5.386-1.14l-.76-.38-.795,4.971a16.7,16.7,0,0,0,6.387,1.175c6.008.035,9.911-2.97,9.978-7.56,0-2.521-1.553-4.419-4.834-6.01-2-1-3.209-1.727-3.209-2.76,0-.931,1.034-1.9,3.279-1.9a9.523,9.523,0,0,1,4.281.831l.518.274.793-4.8a14.243,14.243,0,0,0-5.144-.933Zm15.4.38a2.835,2.835,0,0,0-3.005,1.865l-8.494,20.3h6.008c.969-2.726,1.21-3.315,1.21-3.315h7.318s.174.76.689,3.315H73.28L68.654,19.456H64.235Zm-2.66,14.295s.483-1.278,2.28-6.181c-.035.035.483-1.278.76-2.106l.413,1.9c1.07,5.283,1.314,6.387,1.314,6.387H61.575Z" transform="translate(-2.571 -19.076)" fill="#1334cb"/>
</svg>
