<svg xmlns="http://www.w3.org/2000/svg" width="180" height="64" viewBox="0 0 180 64">
  <g id="with-guests" transform="translate(-476 -271)">
    <g id="Rectangle_35" data-name="Rectangle 35" transform="translate(479 274)" fill="#fff" stroke="#4d7080" stroke-width="3">
      <rect width="174" height="58" rx="29" stroke="none"/>
      <rect x="-1.5" y="-1.5" width="177" height="61" rx="30.5" fill="none"/>
    </g>
    <g id="Group_122" data-name="Group 122" transform="translate(0.765 -48)">
      <g id="Icon_ionic-ios-people" data-name="Icon ionic-ios-people" transform="translate(491.02 328.252)">
        <path id="Path_255" data-name="Path 255" d="M32.9,31.6c-1.19-.425-3.134-.446-3.995-.776a5.643,5.643,0,0,1-1.849-.861,11.422,11.422,0,0,1-.308-3.028A4.891,4.891,0,0,0,27.8,25.448a16.53,16.53,0,0,0,.51-2.922s.7.3.977-1.1c.234-1.211.68-1.849.563-2.741s-.616-.68-.616-.68.616-.9.616-3.973c0-3.166-2.39-6.279-6.863-6.279s-6.874,3.123-6.874,6.279c0,3.07.606,3.973.606,3.973s-.5-.212-.616.68.319,1.53.563,2.741c.276,1.413.977,1.1.977,1.1a16.69,16.69,0,0,0,.51,2.922,4.891,4.891,0,0,0,1.052,1.487,11.422,11.422,0,0,1-.308,3.028,5.431,5.431,0,0,1-1.849.85c-.85.329-2.794.372-3.995.8a7.5,7.5,0,0,0-4.866,7.139H37.757A7.483,7.483,0,0,0,32.9,31.6Z" transform="translate(3.054)" fill="#4e7180"/>
        <path id="Path_256" data-name="Path 256" d="M13.742,24.657s2.539-.085,3.548-.988c-1.647-2.5-.754-5.407-1.094-8.127s-1.88-4.334-4.961-4.334h-.042a4.5,4.5,0,0,0-4.919,4.334c-.34,2.709.606,5.949-1.084,8.127,1.009.914,3.559.882,3.559.882h0a5.38,5.38,0,0,1-.106,1.785,2.683,2.683,0,0,1-1.275.584,24.649,24.649,0,0,0-2.752.765,4.473,4.473,0,0,0-2.4,3.952h8.531c.234-.85,1.838-2.369,3.4-3.166a7.134,7.134,0,0,1,2.624-.552s.4-.637-.924-.882a9.056,9.056,0,0,1-2.04-.712C13.6,26.092,13.742,24.657,13.742,24.657Z" transform="translate(0 1.768)" fill="#4e7180"/>
        <path id="Path_257" data-name="Path 257" d="M27.356,24.657s-2.539-.085-3.548-.988c1.647-2.5.754-5.407,1.094-8.127s1.88-4.334,4.961-4.334h.042a4.5,4.5,0,0,1,4.919,4.334c.34,2.709-.606,5.949,1.084,8.127-1.009.914-3.559.882-3.559.882h0a5.38,5.38,0,0,0,.106,1.785,2.683,2.683,0,0,0,1.275.584,24.649,24.649,0,0,1,2.752.765,4.473,4.473,0,0,1,2.4,3.952H30.352c-.234-.85-1.838-2.369-3.4-3.166a7.134,7.134,0,0,0-2.624-.552s-.4-.637.924-.882a9.056,9.056,0,0,0,2.04-.712C27.494,26.092,27.356,24.657,27.356,24.657Z" transform="translate(11.033 1.768)" fill="#4e7180"/>
      </g>
      <text id="with_guests" data-name="with guests" transform="translate(547 357)" fill="#4e7180" font-size="15" font-family="Gontserrat-Medium, Montserrat" font-weight="500"><tspan x="0" y="0">with guests</tspan></text>
    </g>
  </g>
</svg>
