<svg id="wrong" xmlns="http://www.w3.org/2000/svg" width="48" height="48" viewBox="0 0 48 48">
  <g id="invisible_box" data-name="invisible box">
    <rect id="Rectangle_47" data-name="Rectangle 47" width="48" height="48" fill="none"/>
  </g>
  <g id="icons_Q2" data-name="icons Q2">
    <path id="Path_264" data-name="Path 264" d="M24,2A21.9,21.9,0,1,0,39.586,8.414,22,22,0,0,0,24,2Zm8.3,27.5a2.1,2.1,0,0,1,.4,2.7,2,2,0,0,1-3.1.2L24,26.8l-5.6,5.6a2,2,0,0,1-3.1-.2,2.1,2.1,0,0,1,.4-2.7L21.2,24l-5.5-5.5a2.2,2.2,0,0,1-.4-2.7,2,2,0,0,1,3.1-.2L24,21.2l5.6-5.6a2,2,0,0,1,3.1.2,2.2,2.2,0,0,1-.4,2.7L26.8,24Z" fill="#fff"/>
  </g>
</svg>
