<svg xmlns="http://www.w3.org/2000/svg" width="33" height="33" viewBox="0 0 33 33">
  <g id="x" opacity="0.75">
    <g id="invisible_box" data-name="invisible box">
      <rect id="Rectangle_33" data-name="Rectangle 33" width="33" height="33" fill="none"/>
    </g>
    <g id="icons_Q2" data-name="icons Q2" transform="translate(1.372 1.372)">
      <path id="Path_252" data-name="Path 252" d="M17.094,4.744a12.35,12.35,0,1,1-12.35,12.35,12.35,12.35,0,0,1,12.35-12.35m0-2.744A15.026,15.026,0,1,0,27.788,6.4,15.094,15.094,0,0,0,17.094,2Z" transform="translate(-2 -2)" fill="#fff"/>
      <path id="Path_253" data-name="Path 253" d="M23.1,21.162l3.842-3.774a1.441,1.441,0,0,0,.137-1.852,1.3,1.3,0,0,0-2.058-.137l-3.842,3.842L17.333,15.4a1.3,1.3,0,0,0-2.058.137,1.441,1.441,0,0,0,.137,1.852l3.842,3.774-3.842,3.774a1.441,1.441,0,0,0-.137,1.852,1.3,1.3,0,0,0,2.058.137l3.842-3.842,3.842,3.842a1.3,1.3,0,0,0,2.058-.137,1.441,1.441,0,0,0-.137-1.852Z" transform="translate(-6.081 -6.068)" fill="#fff"/>
    </g>
  </g>
</svg>
