<?xml version="1.0" encoding="UTF-8"?>
<svg id="Layer_2" data-name="Layer 2" xmlns="http://www.w3.org/2000/svg" viewBox="0 0 170.79 170.79">
  <defs>
    <style>
      .cls-1 {
        fill: #fff;
      }

      .cls-2 {
        fill: #ffea20;
      }

      .cls-3 {
        fill: #515252;
      }
    </style>
  </defs>
  <g id="Layer_3" data-name="Layer 3">
    <g>
      <circle class="cls-2" cx="85.39" cy="85.39" r="85.39"/>
      <g>
        <path class="cls-1" d="m127.55,45.71c5.07,1.77,8.98,4.27,11.72,7.49,2.74,3.22,4.11,6.97,4.11,11.24s-1.29,7.93-3.87,11.24c-2.58,3.3-6.04,5.6-10.39,6.89,5.07,1.13,9.14,3.64,12.2,7.55,3.06,3.91,4.59,8.52,4.59,13.83,0,4.75-1.41,8.94-4.23,12.56-2.82,3.62-6.79,6.4-11.9,8.34-5.12,1.93-11.1,2.9-17.94,2.9h-44.94V43.05h42.89c6.76,0,12.69.89,17.76,2.66Zm-14.68,28.27c1.17-1.13,1.75-2.62,1.75-4.47s-.58-3.2-1.75-4.29c-1.17-1.09-2.72-1.63-4.65-1.63h-13.41v12.08h13.41c1.93,0,3.48-.56,4.65-1.69Zm1.57,31.35c1.57-1.25,2.36-2.88,2.36-4.89,0-1.85-.79-3.34-2.36-4.47-1.57-1.13-3.65-1.69-6.22-1.69h-13.41v12.93h13.41c2.58,0,4.65-.62,6.22-1.87Z"/>
        <path class="cls-3" d="m46.75,68.48v36.97c0,4.96,1.05,8.39,3.14,10.3,2.1,1.91,5.2,2.85,9.3,2.85,2.55,0,5.01-.37,7.38-1.12v6.82c-2.92.66-5.88.99-8.89.99-6.02,0-10.73-1.53-14.15-4.59-3.42-3.06-5.13-7.65-5.13-13.77v-38.46h-13.54v-6.08h13.54v-16.5l8.34-2.85v19.35h20.23v6.08h-20.23Z"/>
      </g>
    </g>
  </g>
</svg>